<?xml version="1.0" encoding="utf-8"?>
<!-- Generator: Adobe Illustrator 18.1.0, SVG Export Plug-In . SVG Version: 6.00 Build 0)  -->
<svg version="1.1" id="Layer_1" xmlns="http://www.w3.org/2000/svg" xmlns:xlink="http://www.w3.org/1999/xlink" x="0px" y="0px"
	 viewBox="0 0 502.992 277.667" enable-background="new 0 0 502.992 277.667" xml:space="preserve">
<rect y="248.831" fill="#993333" width="502.992" height="28.995"/>
<g>
	<path fill="#FFFFFF" d="M107.124,268.855h-6.369v-2.777l5.794-10.462h3.352v10.989h1.868v2.25H109.9v3.472h-2.776V268.855z
		 M107.124,258.68h-0.048l-4.118,7.925h4.166V258.68z"/>
	<path fill="#FFFFFF" d="M132.594,255.376c4.333,0,5.267,4.477,5.267,8.595s-0.934,8.595-5.267,8.595
		c-4.31,0-5.267-4.477-5.267-8.595S128.284,255.376,132.594,255.376z M132.594,270.316c1.892,0,2.299-2.658,2.299-6.345
		s-0.407-6.345-2.299-6.345c-1.867,0-2.298,2.658-2.298,6.345S130.727,270.316,132.594,270.316z"/>
	<path fill="#FFFFFF" d="M159.788,268.855h-6.369v-2.777l5.794-10.462h3.352v10.989h1.868v2.25h-1.868v3.472h-2.776V268.855z
		 M159.788,258.68h-0.048l-4.118,7.925h4.166V258.68z"/>
	<path fill="#FFFFFF" d="M180.709,269.214h2.873v3.112h-2.873V269.214z"/>
	<path fill="#FFFFFF" d="M200.817,269.214h2.873v3.112h-2.873V269.214z"/>
	<path fill="#FFFFFF" d="M220.926,269.214h2.873v3.112h-2.873V269.214z"/>
	<path fill="#FFFFFF" d="M260.138,269.094c0.598,0.384,1.915,1.03,3.543,1.03c1.341,0,2.537-0.742,2.537-2.419
		c0-1.196-0.693-1.724-2.178-2.537l-1.557-0.862c-1.652-0.909-2.729-2.227-2.729-4.381c0-2.993,2.466-4.549,5.268-4.549
		c1.771,0,3.017,0.455,3.495,0.599l-0.144,2.562c-0.742-0.287-1.724-0.718-3.137-0.718c-1.532,0-2.322,0.813-2.322,1.963
		c0,1.245,0.838,1.724,1.771,2.25l1.796,1.006c1.963,1.102,2.897,2.154,2.897,4.501c0,3.399-2.419,5.027-5.603,5.027
		c-1.676,0-2.969-0.239-3.807-0.742L260.138,269.094z"/>
	<path fill="#FFFFFF" d="M292.191,255.376c3.472,0,6.655,2.586,6.655,8.595s-3.184,8.595-6.655,8.595s-6.655-2.586-6.655-8.595
		S288.72,255.376,292.191,255.376z M292.191,270.22c1.939,0,3.495-1.652,3.495-6.249s-1.556-6.249-3.495-6.249
		s-3.495,1.652-3.495,6.249S290.252,270.22,292.191,270.22z"/>
	<path fill="#FFFFFF" d="M315.459,255.615h5.219c2.969,0,4.98,1.341,4.98,4.405c0,2.179-1.365,3.639-3.232,3.927v0.071
		c0.623,0.096,1.316,0.383,1.844,1.939l2.179,6.368h-3.256l-1.652-5.435c-0.407-1.316-1.197-1.748-2.322-1.748h-0.694v7.183h-3.064
		V255.615z M319.769,262.894c1.628,0,2.729-0.838,2.729-2.538c0-1.915-1.006-2.394-2.729-2.394h-1.245v4.932H319.769z"/>
	<path fill="#FFFFFF" d="M342.653,255.615h5.219c2.969,0,4.98,1.341,4.98,4.405c0,2.179-1.365,3.639-3.232,3.927v0.071
		c0.623,0.096,1.316,0.383,1.844,1.939l2.179,6.368h-3.256l-1.652-5.435c-0.407-1.316-1.197-1.748-2.322-1.748h-0.694v7.183h-3.064
		V255.615z M346.963,262.894c1.628,0,2.729-0.838,2.729-2.538c0-1.915-1.006-2.394-2.729-2.394h-1.245v4.932H346.963z"/>
	<path fill="#FFFFFF" d="M372.026,265.623l-4.932-10.008h3.304l3.256,6.68l3.064-6.68h3.305l-4.933,10.079v6.632h-3.064V265.623z"/>
	<path fill="#FFFFFF" d="M396.993,255.615h3.064l-0.383,11.779h-2.298L396.993,255.615z M397.089,269.31h2.873v3.017h-2.873V269.31z
		"/>
</g>
<g>
	<path fill="#FFFFFF" d="M119.552,94.348c-14.816-8.73-33.52-19.642-33.708-43.418c-0.172-21.75,14.312-31.635,33.098-33.626
		l-0.112-14.193l7.926-0.063l0.112,14.193c25.625,0.35,33.096,12.64,33.288,36.971l-24.33,0.192
		c0.495-7.377-1.239-16.765-8.806-17.995l0.263,33.178c14.816,8.916,35.163,17.603,35.372,43.959
		c0.207,26.173-15.399,34.04-34.741,35.668l0.125,15.851l-7.926,0.062l-0.125-15.851c-29.862,0.052-35.147-15.759-35.342-40.273
		l25.436-0.201c0.07,8.848,0.156,19.722,9.754,21.305L119.552,94.348z M119.094,36.472c-5.333,1.7-7.885,5.224-7.826,12.597
		c0.043,5.529,3.225,11.587,8.048,15.42L119.094,36.472z M127.761,130.045c5.889-1.153,9.543-5.236,9.477-13.716
		c-0.064-8.11-3.971-12.688-9.719-16.882L127.761,130.045z"/>
	<path fill="#FFFFFF" d="M192.865,111.464l-13.825,0.109l-0.149-18.799l16.221-0.128l2.423-19.928l-13.455,0.106l-0.149-18.801
		l15.852-0.125l4.327-35.611l15.852-0.125l-4.327,35.611l15.852-0.125l4.326-35.611l15.853-0.125l-4.327,35.611l13.824-0.109
		l0.149,18.801l-16.221,0.128l-2.423,19.927l13.456-0.106l0.149,18.8l-15.853,0.126l-4.326,35.61l-15.852,0.126l4.327-35.611
		l-15.853,0.126l-4.327,35.61l-15.851,0.126L192.865,111.464z M210.963,92.52l15.853-0.125l2.423-19.928l-15.852,0.125
		L210.963,92.52z"/>
	<path fill="#FFFFFF" d="M304.374,110.581l-17.694,0.14l-4.827-97.473l25.805-0.205L304.374,110.581z M306.693,124.019l0.175,22.118
		l-22.118,0.175l-0.175-22.118L306.693,124.019z"/>
	<path fill="#FFFFFF" d="M357.998,38.819l20.459-0.162l0.288,36.312l31.15-0.247l0.162,20.459l-31.15,0.247l0.287,36.312
		l-20.459,0.161l-0.287-36.312l-31.334,0.249l-0.162-20.459l31.334-0.248L357.998,38.819z"/>
</g>
</svg>
