<?xml version="1.0" encoding="utf-8"?>
<!-- Generator: Adobe Illustrator 18.1.0, SVG Export Plug-In . SVG Version: 6.00 Build 0)  -->
<svg version="1.1" id="Layer_1" xmlns="http://www.w3.org/2000/svg" xmlns:xlink="http://www.w3.org/1999/xlink" x="0px" y="0px"
	 viewBox="0 0 503 277.7" enable-background="new 0 0 503 277.7" xml:space="preserve">
<rect y="248.8" fill="#993333" width="503" height="29"/>
<g>
	<path fill="#F1F1F2" d="M107.1,268.9h-6.4v-2.8l5.8-10.5h3.4v11h1.9v2.2h-1.9v3.5h-2.8V268.9z M107.1,258.7L107.1,258.7l-4.2,7.9
		h4.2V258.7z"/>
	<path fill="#F1F1F2" d="M132.6,255.4c4.3,0,5.3,4.5,5.3,8.6s-0.9,8.6-5.3,8.6c-4.3,0-5.3-4.5-5.3-8.6S128.3,255.4,132.6,255.4z
		 M132.6,270.3c1.9,0,2.3-2.7,2.3-6.3s-0.4-6.3-2.3-6.3c-1.9,0-2.3,2.7-2.3,6.3S130.7,270.3,132.6,270.3z"/>
	<path fill="#F1F1F2" d="M159.8,268.9h-6.4v-2.8l5.8-10.5h3.4v11h1.9v2.2h-1.9v3.5h-2.8V268.9z M159.8,258.7L159.8,258.7l-4.2,7.9
		h4.2V258.7z"/>
	<path fill="#F1F1F2" d="M180.7,269.2h2.9v3.1h-2.9V269.2z"/>
	<path fill="#F1F1F2" d="M200.8,269.2h2.9v3.1h-2.9V269.2z"/>
	<path fill="#F1F1F2" d="M220.9,269.2h2.9v3.1h-2.9V269.2z"/>
	<path fill="#F1F1F2" d="M260.1,269.1c0.6,0.4,1.9,1,3.5,1c1.3,0,2.5-0.7,2.5-2.4c0-1.2-0.7-1.7-2.2-2.5l-1.6-0.9
		c-1.7-0.9-2.7-2.2-2.7-4.4c0-3,2.5-4.5,5.3-4.5c1.8,0,3,0.5,3.5,0.6l-0.1,2.6c-0.7-0.3-1.7-0.7-3.1-0.7c-1.5,0-2.3,0.8-2.3,2
		c0,1.2,0.8,1.7,1.8,2.2l1.8,1c2,1.1,2.9,2.2,2.9,4.5c0,3.4-2.4,5-5.6,5c-1.7,0-3-0.2-3.8-0.7L260.1,269.1z"/>
	<path fill="#F1F1F2" d="M292.2,255.4c3.5,0,6.7,2.6,6.7,8.6s-3.2,8.6-6.7,8.6s-6.7-2.6-6.7-8.6S288.7,255.4,292.2,255.4z
		 M292.2,270.2c1.9,0,3.5-1.7,3.5-6.2s-1.6-6.2-3.5-6.2s-3.5,1.7-3.5,6.2S290.3,270.2,292.2,270.2z"/>
	<path fill="#F1F1F2" d="M315.5,255.6h5.2c3,0,5,1.3,5,4.4c0,2.2-1.4,3.6-3.2,3.9v0.1c0.6,0.1,1.3,0.4,1.8,1.9l2.2,6.4h-3.3
		l-1.7-5.4c-0.4-1.3-1.2-1.7-2.3-1.7h-0.7v7.2h-3.1V255.6z M319.8,262.9c1.6,0,2.7-0.8,2.7-2.5c0-1.9-1-2.4-2.7-2.4h-1.2v4.9H319.8z
		"/>
	<path fill="#F1F1F2" d="M342.7,255.6h5.2c3,0,5,1.3,5,4.4c0,2.2-1.4,3.6-3.2,3.9v0.1c0.6,0.1,1.3,0.4,1.8,1.9l2.2,6.4h-3.3
		l-1.7-5.4c-0.4-1.3-1.2-1.7-2.3-1.7h-0.7v7.2h-3.1V255.6z M347,262.9c1.6,0,2.7-0.8,2.7-2.5c0-1.9-1-2.4-2.7-2.4h-1.2v4.9H347z"/>
	<path fill="#F1F1F2" d="M372,265.6l-4.9-10h3.3l3.3,6.7l3.1-6.7h3.3l-4.9,10.1v6.6H372V265.6z"/>
	<path fill="#F1F1F2" d="M397,255.6h3.1l-0.4,11.8h-2.3L397,255.6z M397.1,269.3h2.9v3h-2.9V269.3z"/>
</g>
<g>
	<path fill="#E6E7E8" d="M119.6,94.3C104.7,85.6,86,74.7,85.8,50.9c-0.2-21.8,14.3-31.6,33.1-33.6l-0.1-14.2l7.9-0.1l0.1,14.2
		c25.6,0.3,33.1,12.6,33.3,37l-24.3,0.2c0.5-7.4-1.2-16.8-8.8-18l0.3,33.2c14.8,8.9,35.2,17.6,35.4,44c0.2,26.2-15.4,34-34.7,35.7
		l0.1,15.9l-7.9,0.1l-0.1-15.9c-29.9,0.1-35.1-15.8-35.3-40.3l25.4-0.2c0.1,8.8,0.2,19.7,9.8,21.3L119.6,94.3z M119.1,36.5
		c-5.3,1.7-7.9,5.2-7.8,12.6c0,5.5,3.2,11.6,8,15.4L119.1,36.5z M127.8,130c5.9-1.2,9.5-5.2,9.5-13.7c-0.1-8.1-4-12.7-9.7-16.9
		L127.8,130z"/>
	<path fill="#E6E7E8" d="M192.9,111.5l-13.8,0.1l-0.1-18.8l16.2-0.1l2.4-19.9l-13.5,0.1L183.9,54l15.9-0.1l4.3-35.6l15.9-0.1
		l-4.3,35.6l15.9-0.1l4.3-35.6l15.9-0.1l-4.3,35.6l13.8-0.1l0.1,18.8l-16.2,0.1l-2.4,19.9l13.5-0.1l0.1,18.8l-15.9,0.1l-4.3,35.6
		l-15.9,0.1l4.3-35.6l-15.9,0.1l-4.3,35.6l-15.9,0.1L192.9,111.5z M211,92.5l15.9-0.1l2.4-19.9l-15.9,0.1L211,92.5z"/>
	<path fill="#E6E7E8" d="M304.4,110.6l-17.7,0.1l-4.8-97.5l25.8-0.2L304.4,110.6z M306.7,124l0.2,22.1l-22.1,0.2l-0.2-22.1
		L306.7,124z"/>
	<path fill="#E6E7E8" d="M358,38.8l20.5-0.2l0.3,36.3l31.2-0.2l0.2,20.5l-31.2,0.2l0.3,36.3l-20.5,0.2l-0.3-36.3l-31.3,0.2L327,75.4
		l31.3-0.2L358,38.8z"/>
</g>
</svg>
