<?xml version="1.0" encoding="utf-8"?>
<!-- Generator: Adobe Illustrator 18.1.0, SVG Export Plug-In . SVG Version: 6.00 Build 0)  -->
<svg version="1.1" id="Layer_1" xmlns="http://www.w3.org/2000/svg" xmlns:xlink="http://www.w3.org/1999/xlink" x="0px" y="0px"
	 viewBox="0 0 75 50" enable-background="new 0 0 75 50" xml:space="preserve">
<path fill="#FFFFFF" d="M39,34.7c0,14.5-14.5,14.1-14.5,14.1H0.8V1.3h23.6c7.3,0,12.9,4.1,12.9,12.6c0,8.4-6.9,9-6.9,9
	C39.6,22.9,39,34.7,39,34.7z M11.2,20.3h12.5c2.2,0,4-0.7,4-5.6c0-5-3.2-5-3.2-5H11.2V20.3z M29.3,34.1c0-6.6-4.8-6.5-4.8-6.5H11.2
	v12.6h12.6C25.8,40.3,29.3,39.7,29.3,34.1z M74.1,33.9H50.6c0,8.8,7.9,8.2,7.9,8.2c7.6,0,7.3-5,7.3-5h7.9
	c0,13.5-15.6,12.5-15.6,12.5c-18.7,0-17.5-18.1-17.5-18.1s0-18.2,17.5-18.2C76.7,13.4,74.1,33.9,74.1,33.9z M67.3,9.8H48.5V4.1h18.8
	V9.8z M58.5,20.3c-7,0-8.1,7.3-8.1,7.3h15C65.4,27.6,65.4,20.3,58.5,20.3z"/>
</svg>
