<?xml version="1.0" encoding="utf-8"?>
<!-- Generator: Adobe Illustrator 18.1.0, SVG Export Plug-In . SVG Version: 6.00 Build 0)  -->
<svg version="1.1" id="Layer_1" xmlns="http://www.w3.org/2000/svg" xmlns:xlink="http://www.w3.org/1999/xlink" x="0px" y="0px"
	 viewBox="0 0 75 50" enable-background="new 0 0 75 50" xml:space="preserve">
<path fill="#929497" d="M39,34.6c0,14.5-14.5,14.1-14.5,14.1H0.9V1.4h23.6c7.3,0,12.9,4.1,12.9,12.6c0,8.3-6.9,8.9-6.9,8.9
	C39.6,22.9,39,34.6,39,34.6z M11.3,20.3h12.4c2.2,0,4-0.7,4-5.6c0-5-3.2-5-3.2-5H11.3V20.3z M29.3,34.1c0-6.6-4.8-6.4-4.8-6.4H11.3
	v12.6h12.6C25.8,40.2,29.3,39.6,29.3,34.1z M74,33.9H50.5c0,8.8,7.9,8.2,7.9,8.2c7.6,0,7.3-5,7.3-5h7.9c0,13.5-15.5,12.5-15.5,12.5
	c-18.6,0-17.4-18-17.4-18s0-18.2,17.4-18.2C76.6,13.4,74,33.9,74,33.9z M67.2,9.9H48.5V4.2h18.7V9.9z M58.5,20.3
	c-7,0-8.1,7.3-8.1,7.3h14.9C65.3,27.6,65.3,20.3,58.5,20.3z"/>
</svg>
