<?xml version="1.0" encoding="utf-8"?>
<!-- Generator: Adobe Illustrator 18.1.0, SVG Export Plug-In . SVG Version: 6.00 Build 0)  -->
<svg version="1.1" id="Layer_1" xmlns="http://www.w3.org/2000/svg" xmlns:xlink="http://www.w3.org/1999/xlink" x="0px" y="0px"
	 viewBox="0 0 75 50" enable-background="new 0 0 75 50" xml:space="preserve">
<path fill="#929497" d="M38.5,31.9c0,10.1-10.1,9.8-10.1,9.8H11.9V8.6h16.5c5.1,0,9,2.9,9,8.8c0,5.8-4.8,6.2-4.8,6.2
	C38.9,23.7,38.5,31.9,38.5,31.9z M19.2,21.9h8.7c1.5,0,2.8-0.5,2.8-3.9c0-3.5-2.3-3.5-2.3-3.5h-9.2V21.9z M31.8,31.5
	c0-4.6-3.4-4.5-3.4-4.5h-9.2v8.8H28C29.3,35.8,31.8,35.4,31.8,31.5z M63,31.4H46.6c0,6.1,5.5,5.7,5.5,5.7c5.3,0,5.1-3.5,5.1-3.5h5.5
	c0,9.4-10.9,8.7-10.9,8.7c-13,0-12.2-12.6-12.2-12.6S39.8,17,51.9,17C64.9,17,63,31.4,63,31.4z M58.3,14.6H45.2v-4h13.1V14.6z
	 M52.2,21.9c-4.9,0-5.6,5.1-5.6,5.1H57C57,27,57,21.9,52.2,21.9z"/>
</svg>
