<?xml version="1.0" encoding="utf-8"?>
<!-- Generator: Adobe Illustrator 18.1.0, SVG Export Plug-In . SVG Version: 6.00 Build 0)  -->
<svg version="1.1" id="Layer_1" xmlns="http://www.w3.org/2000/svg" xmlns:xlink="http://www.w3.org/1999/xlink" x="0px" y="0px"
	 viewBox="0 0 75 50" enable-background="new 0 0 75 50" xml:space="preserve">
<g>
	<path fill="#FFFFFF" d="M61.5,17.8c0,0.5,0,19.6,0,19.6c0,1.1-1.5,2.6-2.7,2.6H16.2c-1.2,0-2.7-1.5-2.7-2.6c0,0,0-19.1,0-19.6
		c0-0.4,0-1.1,1.1-0.5c1.5,0.7,19.6,10.2,20.4,10.6c1,0.5,1.6,0.5,2.5,0.5c0.9,0,1.5,0,2.4-0.5C40.8,27.5,59,18,60.4,17.3
		C61.5,16.7,61.5,17.4,61.5,17.8z M15,9.1h45c2.3,0,1.2,2.1-0.2,2.9c-1.3,0.6-19.3,10.3-19.9,10.6c-0.6,0.4-1.6,0.5-2.4,0.5
		c-0.9,0-1.7-0.1-2.5-0.5c-0.6-0.3-18.6-10-19.9-10.6C13.9,11.2,12.6,9.1,15,9.1z"/>
</g>
</svg>
