<?xml version="1.0" encoding="utf-8"?>
<!-- Generator: Adobe Illustrator 18.1.0, SVG Export Plug-In . SVG Version: 6.00 Build 0)  -->
<svg version="1.1" id="Layer_1" xmlns="http://www.w3.org/2000/svg" xmlns:xlink="http://www.w3.org/1999/xlink" x="0px" y="0px"
	 viewBox="0 0 75 50" enable-background="new 0 0 75 50" xml:space="preserve">
<g>
	<path fill="#FFFFFF" d="M73.7,14.4c0,0.8,0,29.6,0,29.6c0,1.6-2.3,3.9-4,3.9H5.3c-1.8,0-4-2.3-4-3.9c0,0,0-28.8,0-29.6
		c0-0.6,0-1.6,1.6-0.8C5.2,14.7,32.5,29,33.8,29.6c1.4,0.8,2.4,0.8,3.7,0.8c1.3,0,2.2,0,3.7-0.8c1.3-0.6,28.8-15,30.9-16.1
		C73.7,12.8,73.7,13.7,73.7,14.4z M3.6,1.2h68c3.5,0,1.8,3.2-0.3,4.3c-1.9,1-29.1,15.6-30.1,16.1c-1,0.6-2.4,0.8-3.7,0.8
		c-1.3,0-2.6-0.2-3.7-0.8C32.8,21.1,5.7,6.5,3.7,5.5C1.8,4.4-0.1,1.2,3.6,1.2z"/>
</g>
</svg>
