<?xml version="1.0" encoding="utf-8"?>
<!-- Generator: Adobe Illustrator 18.1.0, SVG Export Plug-In . SVG Version: 6.00 Build 0)  -->
<svg version="1.1" id="Layer_1" xmlns="http://www.w3.org/2000/svg" xmlns:xlink="http://www.w3.org/1999/xlink" x="0px" y="0px"
	 viewBox="0 0 75 50" enable-background="new 0 0 75 50" xml:space="preserve">
<g>
	<path fill="#929497" d="M74.2,14.7c0,0.8,0,30,0,30c0,1.6-2.3,3.9-4.1,3.9H4.9c-1.8,0-4.1-2.3-4.1-3.9c0,0,0-29.2,0-30
		c0-0.7,0-1.6,1.6-0.8c2.3,1.1,30,15.7,31.3,16.3c1.5,0.8,2.4,0.8,3.8,0.8c1.3,0,2.3,0,3.8-0.8c1.3-0.7,29.2-15.2,31.3-16.3
		C74.2,13.1,74.2,14.1,74.2,14.7z M3.1,1.3h69c3.6,0,1.8,3.3-0.3,4.4c-2,1-29.5,15.8-30.5,16.3c-1,0.7-2.4,0.8-3.8,0.8
		c-1.3,0-2.6-0.2-3.8-0.8C32.8,21.6,5.2,6.7,3.2,5.7C1.3,4.6-0.7,1.3,3.1,1.3z"/>
</g>
</svg>
