<?xml version="1.0" encoding="utf-8"?>
<!-- Generator: Adobe Illustrator 18.1.0, SVG Export Plug-In . SVG Version: 6.00 Build 0)  -->
<svg version="1.1" id="Layer_1" xmlns="http://www.w3.org/2000/svg" xmlns:xlink="http://www.w3.org/1999/xlink" x="0px" y="0px"
	 viewBox="0 0 75 50" enable-background="new 0 0 75 50" xml:space="preserve">
<path fill="#FFFFFF" d="M17.7,10.8c-3.4,0-5.6-2.5-5.6-5.4c0-3,2.3-5.4,5.8-5.4c3.5,0,5.6,2.4,5.8,5.4C23.6,8.4,21.4,10.8,17.7,10.8
	z M12.4,15.1h10.8V50H12.4V15.1z M29.5,15.1h9.4l0.6,4.9h0.2c1.4-2.3,4.9-5.6,10.7-5.6c7.2,0,12.5,4.7,12.5,15V50H52.1V30.7
	c0-4.5-1.6-7.6-5.5-7.6c-2.9,0-4.7,2-5.5,4.1c-0.3,0.7-0.3,1.7-0.3,2.7V50H29.7V26.3C29.7,21.9,29.6,18.3,29.5,15.1z"/>
</svg>
