<?xml version="1.0" encoding="utf-8"?>
<!-- Generator: Adobe Illustrator 18.1.0, SVG Export Plug-In . SVG Version: 6.00 Build 0)  -->
<svg version="1.1" id="Layer_1" xmlns="http://www.w3.org/2000/svg" xmlns:xlink="http://www.w3.org/1999/xlink" x="0px" y="0px"
	 viewBox="0 0 75 50" enable-background="new 0 0 75 50" xml:space="preserve">
<path fill="#FFFFFF" d="M23.5,12.7c-2.4,0-4-1.8-4-3.8c0-2.2,1.6-3.8,4.1-3.8c2.5,0,4,1.7,4.1,3.8C27.7,10.9,26.1,12.7,23.5,12.7z
	 M19.7,15.7h7.7v24.7h-7.7V15.7z M31.8,15.7h6.6l0.4,3.4H39c1-1.6,3.4-4,7.6-4c5.1,0,8.9,3.4,8.9,10.6v14.6h-7.7V26.8
	c0-3.2-1.1-5.4-3.9-5.4c-2.1,0-3.4,1.4-3.9,2.9c-0.2,0.5-0.2,1.2-0.2,1.9v14.2H32V23.6C32,20.5,31.9,18,31.8,15.7z"/>
</svg>
