<?xml version="1.0" encoding="utf-8"?>
<!-- Generator: Adobe Illustrator 18.1.0, SVG Export Plug-In . SVG Version: 6.00 Build 0)  -->
<svg version="1.1" id="Layer_1" xmlns="http://www.w3.org/2000/svg" xmlns:xlink="http://www.w3.org/1999/xlink" x="0px" y="0px"
	 viewBox="0 0 502.992 354.159" enable-background="new 0 0 502.992 354.159" xml:space="preserve">
<rect x="0.008" y="325.005" fill="#993333" width="502.992" height="28.995"/>
<g>
	<path fill="#FFFFFF" d="M59.57,338.518h5.411v8.739c-0.862,0.454-2.347,0.861-4.524,0.861c-5.363,0-8.212-3.639-8.212-8.595
		s2.849-8.595,8.212-8.595c1.915,0,3.423,0.431,4.069,0.718l-0.167,2.754c-0.982-0.599-2.322-1.029-3.854-1.029
		c-3.257,0-5.004,2.681-5.004,6.152c0,3.759,1.699,6.153,4.836,6.153c0.718,0,1.364-0.145,1.771-0.312v-4.501H59.57V338.518z"/>
	<path fill="#FFFFFF" d="M82.167,331.168h5.219c2.969,0,4.98,1.341,4.98,4.405c0,2.179-1.365,3.639-3.232,3.927v0.071
		c0.623,0.096,1.316,0.383,1.844,1.939l2.179,6.368h-3.256l-1.652-5.435c-0.407-1.316-1.197-1.748-2.322-1.748h-0.694v7.183h-3.064
		V331.168z M86.477,338.446c1.628,0,2.729-0.838,2.729-2.538c0-1.915-1.006-2.394-2.729-2.394h-1.245v4.932H86.477z"/>
	<path fill="#FFFFFF" d="M117.885,343.856h-5.746l-1.197,4.022h-3.064l5.603-16.711h3.352l5.387,16.711h-3.16L117.885,343.856z
		 M117.239,341.511l-2.107-7.805h-0.048l-2.298,7.805H117.239z"/>
	<path fill="#FFFFFF" d="M137.872,331.168h4.788c3.447,0,5.243,1.915,5.243,5.075s-1.796,5.1-5.243,5.1h-1.724v6.536h-3.064V331.168
		z M142.085,338.997c1.915,0,2.753-0.934,2.753-2.754c0-1.819-0.838-2.729-2.753-2.729h-1.149v5.482H142.085z"/>
	<path fill="#FFFFFF" d="M164.324,331.168h3.064v6.8h4.956v-6.8h3.064v16.711h-3.064v-7.374h-4.956v7.374h-3.064V331.168z"/>
	<path fill="#FFFFFF" d="M192.859,331.168h3.064v16.711h-3.064V331.168z"/>
	<path fill="#FFFFFF" d="M224.003,347.52c-0.622,0.335-2.106,0.599-3.615,0.599c-5.075,0-7.685-3.711-7.685-8.595
		s2.609-8.595,7.589-8.595c1.7,0,3.089,0.455,3.711,0.694l-0.168,2.753c-0.622-0.312-1.604-0.909-3.16-0.909
		c-2.537,0-4.716,1.724-4.716,6.057s2.179,6.058,4.716,6.058c1.484,0,2.467-0.359,3.16-0.862L224.003,347.52z"/>
	<path fill="#FFFFFF" d="M260.533,331.168h4.357c5.219,0,7.996,2.825,7.996,8.355c0,5.626-3.352,8.355-7.996,8.355h-4.357V331.168z
		 M263.597,345.532h1.029c3.447,0,5.004-2.346,5.004-6.009s-1.557-6.009-5.004-6.009h-1.029V345.532z"/>
	<path fill="#FFFFFF" d="M289.641,331.168h8.786v2.442h-5.722v4.453h5.411v2.441h-5.411v4.932h5.962v2.442h-9.026V331.168z"/>
	<path fill="#FFFFFF" d="M315.281,344.646c0.598,0.384,1.915,1.03,3.543,1.03c1.341,0,2.537-0.742,2.537-2.419
		c0-1.196-0.693-1.724-2.178-2.537l-1.557-0.862c-1.652-0.909-2.729-2.227-2.729-4.381c0-2.993,2.466-4.549,5.268-4.549
		c1.771,0,3.017,0.455,3.495,0.599l-0.144,2.562c-0.742-0.287-1.724-0.718-3.137-0.718c-1.532,0-2.322,0.813-2.322,1.963
		c0,1.245,0.838,1.724,1.771,2.25l1.796,1.006c1.963,1.102,2.897,2.154,2.897,4.501c0,3.399-2.419,5.027-5.603,5.027
		c-1.676,0-2.969-0.239-3.807-0.742L315.281,344.646z"/>
	<path fill="#FFFFFF" d="M341.374,331.168h3.064v16.711h-3.064V331.168z"/>
	<path fill="#FFFFFF" d="M368.544,338.518h5.41v8.739c-0.862,0.454-2.346,0.861-4.524,0.861c-5.363,0-8.212-3.639-8.212-8.595
		s2.849-8.595,8.212-8.595c1.915,0,3.423,0.431,4.069,0.718l-0.167,2.754c-0.982-0.599-2.322-1.029-3.854-1.029
		c-3.257,0-5.004,2.681-5.004,6.152c0,3.759,1.699,6.153,4.836,6.153c0.718,0,1.364-0.145,1.771-0.312v-4.501h-2.537V338.518z"/>
	<path fill="#FFFFFF" d="M391.261,331.168h3.639l5.555,13.12h0.048v-13.12h2.776v16.711h-3.662l-5.531-13.024h-0.048v13.024h-2.776
		V331.168z"/>
	<path fill="#FFFFFF" d="M420.681,331.168h8.786v2.442h-5.722v4.453h5.411v2.441h-5.411v4.932h5.962v2.442h-9.026V331.168z"/>
	<path fill="#FFFFFF" d="M446.391,331.168h5.219c2.969,0,4.98,1.341,4.98,4.405c0,2.179-1.365,3.639-3.232,3.927v0.071
		c0.623,0.096,1.316,0.383,1.844,1.939l2.179,6.368h-3.256l-1.652-5.435c-0.407-1.316-1.197-1.748-2.322-1.748h-0.694v7.183h-3.064
		V331.168z M450.701,338.446c1.628,0,2.729-0.838,2.729-2.538c0-1.915-1.006-2.394-2.729-2.394h-1.245v4.932H450.701z"/>
</g>
<g>
	<path fill="#FFFFFF" d="M79.83,123.411c-6.188-41.19-12.375-82.38-18.563-123.57c10.349,0.487,20.698,0.973,31.047,1.46
		c13.617,28.001,27.273,55.983,40.973,83.944c0.119,0,0.179-0.001,0.299-0.001c-3.915-27.518-7.831-55.037-11.746-82.555
		c8.583,0.404,12.875,0.605,21.458,1.009c5.465,39.221,10.929,78.442,16.394,117.662c-9.829,0.252-19.658,0.505-29.487,0.757
		c-14.156-29.47-28.268-58.962-42.34-88.472c-0.121-0.003-0.182-0.005-0.302-0.008c4.387,29.746,8.773,59.492,13.16,89.238
		C92.365,123.089,88.187,123.197,79.83,123.411z"/>
	<path fill="#FFFFFF" d="M169.624,121.105c-5.375-38.976-10.75-77.952-16.125-116.927c9.192,0.432,13.789,0.648,22.981,1.081
		c5.172,38.424,10.345,76.848,15.517,115.272C183.048,120.76,178.573,120.875,169.624,121.105z"/>
	<path fill="#FFFFFF" d="M241.19,42.204c-0.541-9.516-5.243-19.58-16.079-19.87c-16.917-0.453-10.078,32.344-8.839,41.229
		c1.734,12.436,2.843,42.323,21.462,41.352c3.578-0.187,7.613-1.052,10.884-2.33c-1.234-9.833-1.851-14.75-3.085-24.583
		c-4.91-0.008-7.365-0.012-12.275-0.02c-0.877-6.877-1.315-10.316-2.191-17.193c11.673,0.15,23.345,0.3,35.018,0.451
		c2.25,18.465,4.5,36.93,6.75,55.394c-9.786,2.164-19.811,3.994-29.774,4.445c-38.211,1.727-45.589-26.339-49.934-59.035
		c-3.28-24.678-3.413-59.054,31.217-56.38c20.529,1.585,38.352,15.206,39.491,37.11C254.777,42.545,250.248,42.432,241.19,42.204z"
		/>
	<path fill="#FFFFFF" d="M283.582,118.179c-4.344-36.166-8.687-72.331-13.03-108.497c19.989,0.94,39.979,1.88,59.968,2.82
		c0.704,6.406,1.056,9.609,1.76,16.015c-12.279-0.443-24.558-0.887-36.836-1.33c1.225,10.536,1.838,15.804,3.063,26.341
		c11.244,0.207,22.488,0.414,33.732,0.62c0.708,6.42,1.063,9.629,1.771,16.049c-11.198-0.081-22.396-0.162-33.593-0.243
		c1.21,10.408,2.42,20.816,3.631,31.225c12.449-0.177,24.898-0.355,37.347-0.532c0.702,6.401,1.053,9.601,1.755,16.002
		C323.292,117.159,303.437,117.669,283.582,118.179z"/>
	<path fill="#FFFFFF" d="M351.896,116.424c-3.725-34.481-7.45-68.962-11.176-103.443c9.192,0.432,13.788,0.648,22.98,1.081
		c2.937,28.291,5.875,56.581,8.812,84.872c11.212-0.149,22.424-0.299,33.636-0.448c0.642,6.602,0.963,9.903,1.605,16.504
		C389.135,115.468,370.515,115.946,351.896,116.424z"/>
</g>
<g>
	<path fill="#FFFFFF" d="M91.028,235.327c-3.22-33.103-6.439-66.207-9.659-99.31c18.271-0.469,36.542-0.938,54.812-1.408
		c0.685,6.356,1.028,9.534,1.714,15.89c-11.316,0.161-22.633,0.322-33.949,0.484c1.009,9.947,1.513,14.92,2.522,24.867
		c10.5,0.041,21.001,0.082,31.501,0.122c0.681,6.345,1.022,9.517,1.703,15.862c-10.544-0.159-21.087-0.318-31.631-0.477
		c0.997,9.826,1.993,19.652,2.99,29.478c11.907,0.43,23.813,0.86,35.72,1.289c0.687,6.361,1.031,9.542,1.718,15.903
		C129.322,237.128,110.175,236.228,91.028,235.327z"/>
	<path fill="#FFFFFF" d="M156.907,238.425c-3.8-34.685-7.6-69.37-11.4-104.055c8.402-0.216,12.604-0.324,21.007-0.539
		c3.327,29.353,6.654,58.706,9.981,88.059c10.718,0.377,21.436,0.755,32.155,1.132c0.853,7.175,1.279,10.763,2.131,17.938
		C192.822,240.114,174.865,239.27,156.907,238.425z"/>
	<path fill="#FFFFFF" d="M253.331,131.601c0.952,7.448,1.429,11.172,2.381,18.62c-9.392,0.125-14.088,0.188-23.48,0.313
		c3.806,30.657,7.612,61.313,11.417,91.97c-8.631-0.406-12.947-0.609-21.578-1.015c-3.647-30.225-7.295-60.45-10.942-90.674
		c-9.392,0.125-14.088,0.188-23.48,0.313c-0.83-7.115-1.245-10.673-2.076-17.787C208.16,132.761,230.745,132.181,253.331,131.601z"
		/>
	<path fill="#FFFFFF" d="M263.74,187.654c-2.879-22.854-5.163-58.318,27.18-58.933c32.197-0.613,39.542,34.474,43.048,59.717
		c3.158,22.741,7.343,61.395-27.183,58.931C274.466,245.062,267.149,214.711,263.74,187.654z M312.391,188.197
		c-1.46-10.76-2.269-42.387-19.174-42.301c-16.818,0.086-9.009,33.594-7.901,41.998c1.494,11.345,2.069,41.426,19.174,42.298
		C321.787,231.076,313.466,196.121,312.391,188.197z"/>
	<path fill="#FFFFFF" d="M350.837,247.545c-5.509-39.341-11.018-78.682-16.527-118.023c9.461-0.243,18.921-0.486,28.382-0.729
		c13.097,27.942,26.16,55.899,39.191,83.871c0.114,0.003,0.17,0.004,0.283,0.007c-4.162-28.19-8.324-56.381-12.486-84.572
		c7.845-0.201,11.768-0.302,19.613-0.504c6.188,41.19,12.375,82.38,18.563,123.571c-9.479-0.446-18.957-0.891-28.436-1.337
		c-13.511-29.585-27.052-59.156-40.628-88.711c-0.112,0.001-0.168,0.001-0.281,0.002c4.158,29.124,8.317,58.249,12.476,87.373
		C362.927,248.113,358.897,247.924,350.837,247.545z"/>
</g>
</svg>
