<?xml version="1.0" encoding="utf-8"?>
<!-- Generator: Adobe Illustrator 18.1.0, SVG Export Plug-In . SVG Version: 6.00 Build 0)  -->
<svg version="1.1" id="Layer_1" xmlns="http://www.w3.org/2000/svg" xmlns:xlink="http://www.w3.org/1999/xlink" x="0px" y="0px"
	 viewBox="0 0 503 354.2" enable-background="new 0 0 503 354.2" xml:space="preserve">
<rect x="0" y="325" fill="#993333" width="503" height="29"/>
<text transform="matrix(1 0 0 1 31.043 347.8788)" fill="#FFFFFF" font-family="'FrutigerLTStd-BoldCn'" font-size="23.9385" letter-spacing="13"> GRAPHIC DESIGNER</text>
<g>
	<path fill="#FFFFFF" d="M79.8,123.4C73.6,82.2,67.5,41,61.3-0.2c10.3,0.5,20.7,1,31,1.5c13.6,28,27.3,56,41,83.9c0.1,0,0.2,0,0.3,0
		c-3.9-27.5-7.8-55-11.7-82.6c8.6,0.4,12.9,0.6,21.5,1c5.5,39.2,10.9,78.4,16.4,117.7c-9.8,0.3-19.7,0.5-29.5,0.8
		c-14.2-29.5-28.3-59-42.3-88.5c-0.1,0-0.2,0-0.3,0c4.4,29.7,8.8,59.5,13.2,89.2C92.4,123.1,88.2,123.2,79.8,123.4z"/>
	<path fill="#FFFFFF" d="M169.6,121.1c-5.4-39-10.7-78-16.1-116.9c9.2,0.4,13.8,0.6,23,1.1c5.2,38.4,10.3,76.8,15.5,115.3
		C183,120.8,178.6,120.9,169.6,121.1z"/>
	<path fill="#FFFFFF" d="M241.2,42.2c-0.5-9.5-5.2-19.6-16.1-19.9c-16.9-0.5-10.1,32.3-8.8,41.2c1.7,12.4,2.8,42.3,21.5,41.4
		c3.6-0.2,7.6-1.1,10.9-2.3c-1.2-9.8-1.9-14.7-3.1-24.6c-4.9,0-7.4,0-12.3,0c-0.9-6.9-1.3-10.3-2.2-17.2c11.7,0.2,23.3,0.3,35,0.5
		c2.2,18.5,4.5,36.9,6.8,55.4c-9.8,2.2-19.8,4-29.8,4.4c-38.2,1.7-45.6-26.3-49.9-59c-3.3-24.7-3.4-59.1,31.2-56.4
		c20.5,1.6,38.4,15.2,39.5,37.1C254.8,42.5,250.2,42.4,241.2,42.2z"/>
	<path fill="#FFFFFF" d="M283.6,118.2c-4.3-36.2-8.7-72.3-13-108.5c20,0.9,40,1.9,60,2.8c0.7,6.4,1.1,9.6,1.8,16
		c-12.3-0.4-24.6-0.9-36.8-1.3c1.2,10.5,1.8,15.8,3.1,26.3c11.2,0.2,22.5,0.4,33.7,0.6c0.7,6.4,1.1,9.6,1.8,16
		c-11.2-0.1-22.4-0.2-33.6-0.2c1.2,10.4,2.4,20.8,3.6,31.2c12.4-0.2,24.9-0.4,37.3-0.5c0.7,6.4,1.1,9.6,1.8,16
		C323.3,117.2,303.4,117.7,283.6,118.2z"/>
	<path fill="#FFFFFF" d="M351.9,116.4c-3.7-34.5-7.5-69-11.2-103.4c9.2,0.4,13.8,0.6,23,1.1c2.9,28.3,5.9,56.6,8.8,84.9
		c11.2-0.1,22.4-0.3,33.6-0.4c0.6,6.6,1,9.9,1.6,16.5C389.1,115.5,370.5,115.9,351.9,116.4z"/>
</g>
<g>
	<path fill="#FFFFFF" d="M91,235.3c-3.2-33.1-6.4-66.2-9.7-99.3c18.3-0.5,36.5-0.9,54.8-1.4c0.7,6.4,1,9.5,1.7,15.9
		c-11.3,0.2-22.6,0.3-33.9,0.5c1,9.9,1.5,14.9,2.5,24.9c10.5,0,21,0.1,31.5,0.1c0.7,6.3,1,9.5,1.7,15.9c-10.5-0.2-21.1-0.3-31.6-0.5
		c1,9.8,2,19.7,3,29.5c11.9,0.4,23.8,0.9,35.7,1.3c0.7,6.4,1,9.5,1.7,15.9C129.3,237.1,110.2,236.2,91,235.3z"/>
	<path fill="#FFFFFF" d="M156.9,238.4c-3.8-34.7-7.6-69.4-11.4-104.1c8.4-0.2,12.6-0.3,21-0.5c3.3,29.4,6.7,58.7,10,88.1
		c10.7,0.4,21.4,0.8,32.2,1.1c0.9,7.2,1.3,10.8,2.1,17.9C192.8,240.1,174.9,239.3,156.9,238.4z"/>
	<path fill="#FFFFFF" d="M253.3,131.6c1,7.4,1.4,11.2,2.4,18.6c-9.4,0.1-14.1,0.2-23.5,0.3c3.8,30.7,7.6,61.3,11.4,92
		c-8.6-0.4-12.9-0.6-21.6-1c-3.6-30.2-7.3-60.4-10.9-90.7c-9.4,0.1-14.1,0.2-23.5,0.3c-0.8-7.1-1.2-10.7-2.1-17.8
		C208.2,132.8,230.7,132.2,253.3,131.6z"/>
	<path fill="#FFFFFF" d="M263.7,187.7c-2.9-22.9-5.2-58.3,27.2-58.9c32.2-0.6,39.5,34.5,43,59.7c3.2,22.7,7.3,61.4-27.2,58.9
		C274.5,245.1,267.1,214.7,263.7,187.7z M312.4,188.2c-1.5-10.8-2.3-42.4-19.2-42.3c-16.8,0.1-9,33.6-7.9,42
		c1.5,11.3,2.1,41.4,19.2,42.3C321.8,231.1,313.5,196.1,312.4,188.2z"/>
	<path fill="#FFFFFF" d="M350.8,247.5c-5.5-39.3-11-78.7-16.5-118c9.5-0.2,18.9-0.5,28.4-0.7c13.1,27.9,26.2,55.9,39.2,83.9
		c0.1,0,0.2,0,0.3,0c-4.2-28.2-8.3-56.4-12.5-84.6c7.8-0.2,11.8-0.3,19.6-0.5c6.2,41.2,12.4,82.4,18.6,123.6
		c-9.5-0.4-19-0.9-28.4-1.3c-13.5-29.6-27.1-59.2-40.6-88.7c-0.1,0-0.2,0-0.3,0c4.2,29.1,8.3,58.2,12.5,87.4
		C362.9,248.1,358.9,247.9,350.8,247.5z"/>
</g>
</svg>
