<?xml version="1.0" encoding="utf-8"?>
<!-- Generator: Adobe Illustrator 18.1.0, SVG Export Plug-In . SVG Version: 6.00 Build 0)  -->
<svg version="1.1" id="Layer_1" xmlns="http://www.w3.org/2000/svg" xmlns:xlink="http://www.w3.org/1999/xlink" x="0px" y="0px"
	 viewBox="0 0 503 354.2" enable-background="new 0 0 503 354.2" xml:space="preserve">
<g>
	<rect y="325.2" fill="#993333" width="503" height="29"/>
	<g>
		<path fill="#F1F1F2" d="M59.6,338.7H65v8.7c-0.9,0.5-2.3,0.9-4.5,0.9c-5.4,0-8.2-3.6-8.2-8.6s2.8-8.6,8.2-8.6
			c1.9,0,3.4,0.4,4.1,0.7l-0.2,2.8c-1-0.6-2.3-1-3.9-1c-3.3,0-5,2.7-5,6.2c0,3.8,1.7,6.2,4.8,6.2c0.7,0,1.4-0.1,1.8-0.3V341h-2.5
			V338.7z"/>
		<path fill="#F1F1F2" d="M82.2,331.3h5.2c3,0,5,1.3,5,4.4c0,2.2-1.4,3.6-3.2,3.9v0.1c0.6,0.1,1.3,0.4,1.8,1.9l2.2,6.4h-3.3
			l-1.7-5.4c-0.4-1.3-1.2-1.7-2.3-1.7h-0.7v7.2h-3.1V331.3z M86.5,338.6c1.6,0,2.7-0.8,2.7-2.5c0-1.9-1-2.4-2.7-2.4h-1.2v4.9H86.5z"
			/>
		<path fill="#F1F1F2" d="M117.9,344h-5.7l-1.2,4h-3.1l5.6-16.7h3.4l5.4,16.7h-3.2L117.9,344z M117.2,341.7l-2.1-7.8h0l-2.3,7.8
			H117.2z"/>
		<path fill="#F1F1F2" d="M137.9,331.3h4.8c3.4,0,5.2,1.9,5.2,5.1s-1.8,5.1-5.2,5.1h-1.7v6.5h-3.1V331.3z M142.1,339.2
			c1.9,0,2.8-0.9,2.8-2.8c0-1.8-0.8-2.7-2.8-2.7h-1.1v5.5H142.1z"/>
		<path fill="#F1F1F2" d="M164.3,331.3h3.1v6.8h5v-6.8h3.1V348h-3.1v-7.4h-5v7.4h-3.1V331.3z"/>
		<path fill="#F1F1F2" d="M192.9,331.3h3.1V348h-3.1V331.3z"/>
		<path fill="#F1F1F2" d="M224,347.7c-0.6,0.3-2.1,0.6-3.6,0.6c-5.1,0-7.7-3.7-7.7-8.6s2.6-8.6,7.6-8.6c1.7,0,3.1,0.5,3.7,0.7
			l-0.2,2.8c-0.6-0.3-1.6-0.9-3.2-0.9c-2.5,0-4.7,1.7-4.7,6.1s2.2,6.1,4.7,6.1c1.5,0,2.5-0.4,3.2-0.9L224,347.7z"/>
		<path fill="#F1F1F2" d="M260.5,331.3h4.4c5.2,0,8,2.8,8,8.4c0,5.6-3.4,8.4-8,8.4h-4.4V331.3z M263.6,345.7h1c3.4,0,5-2.3,5-6
			s-1.6-6-5-6h-1V345.7z"/>
		<path fill="#F1F1F2" d="M289.6,331.3h8.8v2.4h-5.7v4.5h5.4v2.4h-5.4v4.9h6v2.4h-9V331.3z"/>
		<path fill="#F1F1F2" d="M315.3,344.8c0.6,0.4,1.9,1,3.5,1c1.3,0,2.5-0.7,2.5-2.4c0-1.2-0.7-1.7-2.2-2.5l-1.6-0.9
			c-1.7-0.9-2.7-2.2-2.7-4.4c0-3,2.5-4.5,5.3-4.5c1.8,0,3,0.5,3.5,0.6l-0.1,2.6c-0.7-0.3-1.7-0.7-3.1-0.7c-1.5,0-2.3,0.8-2.3,2
			c0,1.2,0.8,1.7,1.8,2.2l1.8,1c2,1.1,2.9,2.2,2.9,4.5c0,3.4-2.4,5-5.6,5c-1.7,0-3-0.2-3.8-0.7L315.3,344.8z"/>
		<path fill="#F1F1F2" d="M341.4,331.3h3.1V348h-3.1V331.3z"/>
		<path fill="#F1F1F2" d="M368.5,338.7h5.4v8.7c-0.9,0.5-2.3,0.9-4.5,0.9c-5.4,0-8.2-3.6-8.2-8.6s2.8-8.6,8.2-8.6
			c1.9,0,3.4,0.4,4.1,0.7l-0.2,2.8c-1-0.6-2.3-1-3.9-1c-3.3,0-5,2.7-5,6.2c0,3.8,1.7,6.2,4.8,6.2c0.7,0,1.4-0.1,1.8-0.3V341h-2.5
			V338.7z"/>
		<path fill="#F1F1F2" d="M391.3,331.3h3.6l5.6,13.1h0v-13.1h2.8V348h-3.7l-5.5-13h0v13h-2.8V331.3z"/>
		<path fill="#F1F1F2" d="M420.7,331.3h8.8v2.4h-5.7v4.5h5.4v2.4h-5.4v4.9h6v2.4h-9V331.3z"/>
		<path fill="#F1F1F2" d="M446.4,331.3h5.2c3,0,5,1.3,5,4.4c0,2.2-1.4,3.6-3.2,3.9v0.1c0.6,0.1,1.3,0.4,1.8,1.9l2.2,6.4h-3.3
			l-1.7-5.4c-0.4-1.3-1.2-1.7-2.3-1.7h-0.7v7.2h-3.1V331.3z M450.7,338.6c1.6,0,2.7-0.8,2.7-2.5c0-1.9-1-2.4-2.7-2.4h-1.2v4.9H450.7
			z"/>
	</g>
	<g>
		<g>
			<g>
				<path fill="#E6E7E8" d="M79.8,123.6C73.6,82.4,67.4,41.2,61.3,0c10.3,0.5,20.7,1,31,1.5c13.6,28,27.3,56,41,83.9
					c0.1,0,0.2,0,0.3,0c-3.9-27.5-7.8-55-11.7-82.6c8.6,0.4,12.9,0.6,21.5,1c5.5,39.2,10.9,78.4,16.4,117.7
					c-9.8,0.3-19.7,0.5-29.5,0.8c-14.2-29.5-28.3-59-42.3-88.5c-0.1,0-0.2,0-0.3,0c4.4,29.7,8.8,59.5,13.2,89.2
					C92.4,123.2,88.2,123.4,79.8,123.6z"/>
				<path fill="#E6E7E8" d="M169.6,121.3c-5.4-39-10.7-78-16.1-116.9c9.2,0.4,13.8,0.6,23,1.1c5.2,38.4,10.3,76.8,15.5,115.3
					C183,120.9,178.6,121,169.6,121.3z"/>
				<path fill="#E6E7E8" d="M241.2,42.4c-0.5-9.5-5.2-19.6-16.1-19.9c-16.9-0.5-10.1,32.3-8.8,41.2c1.7,12.4,2.8,42.3,21.5,41.4
					c3.6-0.2,7.6-1.1,10.9-2.3c-1.2-9.8-1.9-14.7-3.1-24.6c-4.9,0-7.4,0-12.3,0c-0.9-6.9-1.3-10.3-2.2-17.2
					c11.7,0.2,23.3,0.3,35,0.5c2.2,18.5,4.5,36.9,6.8,55.4c-9.8,2.2-19.8,4-29.8,4.4c-38.2,1.7-45.6-26.3-49.9-59
					c-3.3-24.7-3.4-59.1,31.2-56.4c20.5,1.6,38.4,15.2,39.5,37.1C254.8,42.7,250.2,42.6,241.2,42.4z"/>
				<path fill="#E6E7E8" d="M283.6,118.3c-4.3-36.2-8.7-72.3-13-108.5c20,0.9,40,1.9,60,2.8c0.7,6.4,1.1,9.6,1.8,16
					c-12.3-0.4-24.6-0.9-36.8-1.3c1.2,10.5,1.8,15.8,3.1,26.3c11.2,0.2,22.5,0.4,33.7,0.6c0.7,6.4,1.1,9.6,1.8,16
					c-11.2-0.1-22.4-0.2-33.6-0.2c1.2,10.4,2.4,20.8,3.6,31.2c12.4-0.2,24.9-0.4,37.3-0.5c0.7,6.4,1.1,9.6,1.8,16
					C323.3,117.3,303.4,117.8,283.6,118.3z"/>
				<path fill="#E6E7E8" d="M351.9,116.6c-3.7-34.5-7.5-69-11.2-103.4c9.2,0.4,13.8,0.6,23,1.1c2.9,28.3,5.9,56.6,8.8,84.9
					c11.2-0.1,22.4-0.3,33.6-0.4c0.6,6.6,1,9.9,1.6,16.5C389.1,115.6,370.5,116.1,351.9,116.6z"/>
			</g>
		</g>
		<g>
			<g>
				<path fill="#E6E7E8" d="M91,235.5c-3.2-33.1-6.4-66.2-9.7-99.3c18.3-0.5,36.5-0.9,54.8-1.4c0.7,6.4,1,9.5,1.7,15.9
					c-11.3,0.2-22.6,0.3-33.9,0.5c1,9.9,1.5,14.9,2.5,24.9c10.5,0,21,0.1,31.5,0.1c0.7,6.3,1,9.5,1.7,15.9
					c-10.5-0.2-21.1-0.3-31.6-0.5c1,9.8,2,19.7,3,29.5c11.9,0.4,23.8,0.9,35.7,1.3c0.7,6.4,1,9.5,1.7,15.9
					C129.3,237.3,110.2,236.4,91,235.5z"/>
				<path fill="#E6E7E8" d="M156.9,238.6c-3.8-34.7-7.6-69.4-11.4-104.1c8.4-0.2,12.6-0.3,21-0.5c3.3,29.4,6.7,58.7,10,88.1
					c10.7,0.4,21.4,0.8,32.2,1.1c0.9,7.2,1.3,10.8,2.1,17.9C192.8,240.3,174.9,239.4,156.9,238.6z"/>
				<path fill="#E6E7E8" d="M253.3,131.8c1,7.4,1.4,11.2,2.4,18.6c-9.4,0.1-14.1,0.2-23.5,0.3c3.8,30.7,7.6,61.3,11.4,92
					c-8.6-0.4-12.9-0.6-21.6-1c-3.6-30.2-7.3-60.4-10.9-90.7c-9.4,0.1-14.1,0.2-23.5,0.3c-0.8-7.1-1.2-10.7-2.1-17.8
					C208.2,132.9,230.7,132.3,253.3,131.8z"/>
				<path fill="#E6E7E8" d="M263.7,187.8c-2.9-22.9-5.2-58.3,27.2-58.9c32.2-0.6,39.5,34.5,43,59.7c3.2,22.7,7.3,61.4-27.2,58.9
					C274.5,245.2,267.1,214.9,263.7,187.8z M312.4,188.4c-1.5-10.8-2.3-42.4-19.2-42.3c-16.8,0.1-9,33.6-7.9,42
					c1.5,11.3,2.1,41.4,19.2,42.3C321.8,231.2,313.5,196.3,312.4,188.4z"/>
				<path fill="#E6E7E8" d="M350.8,247.7c-5.5-39.3-11-78.7-16.5-118c9.5-0.2,18.9-0.5,28.4-0.7c13.1,27.9,26.2,55.9,39.2,83.9
					c0.1,0,0.2,0,0.3,0c-4.2-28.2-8.3-56.4-12.5-84.6c7.8-0.2,11.8-0.3,19.6-0.5c6.2,41.2,12.4,82.4,18.6,123.6
					c-9.5-0.4-19-0.9-28.4-1.3c-13.5-29.6-27.1-59.2-40.6-88.7c-0.1,0-0.2,0-0.3,0c4.2,29.1,8.3,58.2,12.5,87.4
					C362.9,248.3,358.9,248.1,350.8,247.7z"/>
			</g>
		</g>
	</g>
</g>
</svg>
