<?xml version="1.0" encoding="utf-8"?>
<!-- Generator: Adobe Illustrator 16.0.1, SVG Export Plug-In . SVG Version: 6.00 Build 0)  -->
<!DOCTYPE svg PUBLIC "-//W3C//DTD SVG 1.1//EN" "http://www.w3.org/Graphics/SVG/1.1/DTD/svg11.dtd">
<svg version="1.1" id="Layer_1" xmlns="http://www.w3.org/2000/svg" xmlns:xlink="http://www.w3.org/1999/xlink" x="0px" y="0px"
	 width="240px" height="90px" viewBox="0 0 240 90" enable-background="new 0 0 240 90" xml:space="preserve">
<g>
	<defs>
		<rect id="SVGID_1_" width="240" height="90"/>
	</defs>
	<clipPath id="SVGID_2_">
		<use xlink:href="#SVGID_1_"  overflow="visible"/>
	</clipPath>
	<g clip-path="url(#SVGID_2_)">
		<path fill="#B3B3B3" d="M57.352,49.319H0.021v6.856h58.503C52.441,53.892,55.442,50.463,57.352,49.319z"/>
		<path fill="#B3B3B3" d="M240,49.319H74.823c-0.196,1.144-0.566,1.451-0.773,2.565c-0.282,1.528-1.837,3.148-4.201,4.291H240
			V49.319z"/>
	</g>
	<g clip-path="url(#SVGID_2_)" enable-background="new    ">
		<path fill="#666666" d="M1.854,72.281c0-1.509,0.222-2.864,0.666-4.064c0.444-1.198,1.053-2.216,1.829-3.046
			c0.773-0.831,1.681-1.464,2.72-1.898c1.038-0.435,2.153-0.651,3.343-0.651c1.134,0,2.149,0.237,3.046,0.708
			c0.897,0.474,1.639,1.02,2.225,1.644l-1.842,2.041c-0.473-0.473-0.978-0.846-1.517-1.12c-0.538-0.274-1.166-0.412-1.884-0.412
			c-0.774,0-1.479,0.157-2.111,0.469c-0.633,0.312-1.181,0.756-1.643,1.331c-0.463,0.576-0.822,1.28-1.076,2.111
			c-0.256,0.832-0.384,1.767-0.384,2.806c0,2.116,0.458,3.773,1.374,4.974c0.916,1.198,2.159,1.797,3.727,1.797
			c0.831,0,1.553-0.159,2.167-0.48c0.614-0.322,1.186-0.774,1.714-1.36l1.842,2.013c-0.755,0.868-1.615,1.534-2.579,1.997
			c-0.963,0.463-2.03,0.693-3.2,0.693c-1.19,0-2.296-0.206-3.316-0.622c-1.021-0.415-1.909-1.029-2.664-1.843
			c-0.756-0.812-1.351-1.813-1.785-3.003C2.072,75.173,1.854,73.812,1.854,72.281z"/>
		<path fill="#666666" d="M30.358,81.491l-3.995-7.254H23.53v7.254h-3.286V62.96h6.262c0.963,0,1.86,0.097,2.691,0.284
			c0.832,0.189,1.55,0.496,2.154,0.922c0.604,0.425,1.082,0.985,1.431,1.684c0.35,0.7,0.525,1.569,0.525,2.607
			c0,1.417-0.336,2.561-1.006,3.429c-0.671,0.87-1.564,1.493-2.677,1.87l4.419,7.735H30.358z M23.53,71.63h2.636
			c1.264,0,2.233-0.265,2.904-0.793c0.67-0.527,1.005-1.321,1.005-2.38c0-1.076-0.335-1.822-1.005-2.238
			c-0.671-0.414-1.64-0.623-2.904-0.623H23.53V71.63z"/>
	</g>
	<g enable-background="new    ">
		<path fill="#666666" d="M38.378,62.96h11.164v2.778h-7.877v4.731h6.659v2.776h-6.659v5.469h8.16v2.776H38.378V62.96z"/>
	</g>
	<g enable-background="new    ">
		<path fill="#666666" d="M65.07,76.476h-6.234l-1.445,5.016h-3.344l6.036-18.531h3.853l6.035,18.531h-3.457L65.07,76.476z
			 M64.333,73.898l-0.652-2.269c-0.302-0.98-0.59-1.992-0.864-3.031c-0.274-1.038-0.543-2.067-0.808-3.088h-0.113
			c-0.265,1.039-0.529,2.073-0.794,3.103c-0.264,1.03-0.547,2.036-0.849,3.017l-0.652,2.269H64.333z"/>
	</g>
	<g enable-background="new    ">
		<path fill="#666666" d="M76.572,65.738h-5.355V62.96h13.998v2.778H79.86v15.753h-3.288V65.738z"/>
		<path fill="#666666" d="M90.542,62.96h3.287v18.531h-3.287V62.96z"/>
		<path fill="#666666" d="M98.305,62.96h3.486l2.606,9.321c0.301,1.06,0.571,2.061,0.807,3.005c0.237,0.944,0.515,1.956,0.836,3.031
			h0.114c0.321-1.075,0.6-2.087,0.835-3.031s0.496-1.945,0.779-3.005l2.579-9.321h3.372l-5.752,18.531h-3.882L98.305,62.96z"/>
		<path fill="#666666" d="M118.196,62.96h11.165v2.778h-7.877v4.731h6.657v2.776h-6.657v5.469h8.159v2.776h-11.447V62.96z"/>
	</g>
	<g enable-background="new    ">
		<path fill="#666666" d="M143.868,62.96h4.958c2.834,0,5.045,0.768,6.632,2.298c1.588,1.527,2.38,3.823,2.38,6.884
			c0,1.53-0.203,2.88-0.608,4.051c-0.406,1.171-0.993,2.15-1.756,2.933c-0.767,0.784-1.69,1.376-2.778,1.771
			c-1.089,0.398-2.319,0.595-3.697,0.595h-5.13V62.96z M148.6,78.829c1.89,0,3.341-0.545,4.35-1.63
			c1.013-1.087,1.516-2.771,1.516-5.058c0-2.268-0.509-3.92-1.529-4.959c-1.02-1.038-2.464-1.56-4.336-1.56h-1.444v13.206H148.6z"/>
	</g>
	<g enable-background="new    ">
		<path fill="#666666" d="M162.145,62.96h11.163v2.778h-7.878v4.731h6.66v2.776h-6.66v5.469h8.162v2.776h-11.447V62.96z"/>
		<path fill="#666666" d="M179.146,76.874c0.66,0.622,1.417,1.128,2.267,1.516c0.849,0.389,1.699,0.579,2.548,0.579
			c1.06,0,1.862-0.215,2.41-0.651c0.548-0.435,0.821-1.011,0.821-1.728c0-0.378-0.07-0.698-0.213-0.964
			c-0.142-0.265-0.338-0.494-0.595-0.694c-0.254-0.197-0.559-0.383-0.908-0.552c-0.349-0.171-0.731-0.341-1.146-0.51l-2.552-1.105
			c-0.451-0.19-0.9-0.425-1.344-0.708c-0.445-0.285-0.848-0.623-1.204-1.021c-0.358-0.397-0.648-0.858-0.865-1.388
			c-0.22-0.53-0.327-1.134-0.327-1.814c0-0.736,0.158-1.421,0.47-2.055c0.311-0.633,0.738-1.185,1.288-1.657
			c0.548-0.471,1.204-0.839,1.971-1.104c0.765-0.266,1.601-0.396,2.507-0.396c1.075,0,2.116,0.212,3.115,0.637
			c1.001,0.427,1.86,0.997,2.582,1.715l-1.674,2.096c-0.604-0.489-1.229-0.876-1.87-1.162c-0.643-0.283-1.361-0.425-2.153-0.425
			c-0.888,0-1.598,0.195-2.125,0.582c-0.528,0.388-0.794,0.922-0.794,1.6c0,0.361,0.081,0.667,0.241,0.923
			c0.161,0.255,0.376,0.48,0.649,0.679c0.276,0.199,0.592,0.379,0.952,0.538c0.357,0.161,0.726,0.316,1.104,0.468l2.522,1.049
			c0.548,0.228,1.048,0.492,1.502,0.794c0.453,0.302,0.845,0.651,1.176,1.047c0.331,0.398,0.59,0.856,0.779,1.375
			c0.188,0.521,0.283,1.121,0.283,1.801c0,0.754-0.151,1.463-0.454,2.125c-0.301,0.659-0.74,1.242-1.318,1.741
			c-0.575,0.5-1.273,0.898-2.094,1.19c-0.823,0.293-1.755,0.438-2.795,0.438c-1.245,0-2.449-0.234-3.612-0.708
			c-1.158-0.473-2.186-1.142-3.072-2.012L179.146,76.874z"/>
	</g>
	<g enable-background="new    ">
		<path fill="#666666" d="M196.229,62.96h3.287v18.531h-3.287V62.96z"/>
		<path fill="#666666" d="M204.362,72.281c0-1.509,0.227-2.864,0.68-4.064c0.456-1.198,1.076-2.216,1.869-3.046
			c0.794-0.831,1.729-1.464,2.806-1.898s2.238-0.651,3.486-0.651c0.64,0,1.237,0.066,1.783,0.198
			c0.551,0.132,1.051,0.308,1.505,0.524c0.452,0.216,0.866,0.468,1.247,0.751c0.378,0.283,0.704,0.576,0.988,0.878l-1.811,2.041
			c-0.474-0.455-0.988-0.821-1.546-1.107c-0.557-0.283-1.271-0.425-2.14-0.425c-0.832,0-1.585,0.157-2.252,0.469
			c-0.672,0.312-1.245,0.756-1.729,1.331c-0.48,0.576-0.855,1.28-1.119,2.111c-0.265,0.832-0.398,1.767-0.398,2.806
			c0,2.116,0.479,3.773,1.433,4.974c0.952,1.198,2.367,1.797,4.234,1.797c0.53,0,1.031-0.069,1.505-0.211
			c0.471-0.142,0.858-0.343,1.162-0.61v-3.996h-3.516v-2.69h6.459v8.162c-0.642,0.622-1.483,1.146-2.519,1.572
			c-1.042,0.425-2.203,0.636-3.485,0.636c-1.229,0-2.371-0.206-3.431-0.622c-1.059-0.415-1.975-1.029-2.749-1.843
			c-0.774-0.812-1.377-1.813-1.811-3.003C204.58,75.173,204.362,73.812,204.362,72.281z"/>
	</g>
	<g enable-background="new    ">
		<path fill="#666666" d="M224.28,62.96h3.371l5.78,10.428l1.899,3.938h0.112c-0.075-0.963-0.165-1.998-0.268-3.104
			c-0.104-1.104-0.158-2.175-0.158-3.215V62.96h3.149v18.531h-3.373l-5.779-10.427l-1.898-3.938h-0.115
			c0.077,0.981,0.166,2.011,0.269,3.088c0.104,1.077,0.158,2.134,0.158,3.173v8.104h-3.147V62.96z"/>
	</g>
	<path clip-path="url(#SVGID_2_)" fill="#FFFFFF" d="M69.038,35.681c-2.932,3.068-6.302,4.604-10.11,4.604
		c-5.096,0-8.522-2.398-10.274-7.193c-0.631-1.726-0.946-3.691-0.946-5.898c0-2.205,0.191-4.411,0.574-6.617
		c0.384-2.205,0.973-4.404,1.767-6.597c1.753-4.822,4.261-8.809,7.522-11.96c3.26-3.151,7.192-4.727,11.795-4.727
		c2.411,0,4.151,0.404,5.218,1.213c1.069,0.808,1.604,1.829,1.604,3.062v0.493l0.904-4.357h12.125l-8.344,39.044
		c2.547-0.847,4.651-2.143,6.309-3.884c1.657-1.74,3.089-4.459,4.293-8.16h3.537c-2.138,7.235-5.754,12.001-10.85,14.303
		c-1.398,0.63-2.741,1.109-4.027,1.438l-1.273,6.083c-1.069,5.397-3.207,9.289-6.412,11.672c-2.357,1.752-5.055,2.63-8.096,2.63
		c-3.042,0-5.481-0.672-7.316-2.015c-1.837-1.342-2.754-3.493-2.754-6.45c0-5.124,4.575-9.207,13.726-12.25L69.038,35.681z
		 M67.146,44.354c-5.48,1.972-8.219,4.356-8.219,7.15c0,1.122,0.534,1.958,1.602,2.507c0.355,0.165,0.876,0.248,1.562,0.248
		c0.685,0,1.479-0.611,2.384-1.827c0.904-1.223,1.63-3.105,2.177-5.654L67.146,44.354z M75.409,5.638
		c0-1.26-0.589-2.178-1.769-2.754c-0.437-0.247-0.999-0.37-1.684-0.37c-1.781,0-3.412,0.837-4.891,2.507
		c-3.561,4.028-5.794,9.81-6.7,17.343c-0.138,1.152-0.206,2.371-0.206,3.658c0,2.494,0.521,4.234,1.563,5.22
		c0.601,0.603,1.343,0.904,2.219,0.904c1.562,0,3.015-0.596,4.356-1.788c1.342-1.192,2.287-2.787,2.836-4.787L75.409,5.638z"/>
	<g clip-path="url(#SVGID_2_)" enable-background="new    ">
		<path fill="#333333" d="M24.902,43.691l-4.937-30.385l-6.469,30.385h-8.34l8.34-39.463C10.925,5.306,8.938,6.909,7.54,9.037
			c-1.4,2.127-2.1,4.751-2.1,7.873c0,1.57,0.217,2.751,0.652,3.547c0.094,0.151,0.142,0.283,0.142,0.397
			c-3.103,0-5.041-0.994-5.816-2.979c-0.265-0.719-0.397-1.621-0.397-2.709c0-1.088,0.174-2.217,0.525-3.391
			c0.35-1.172,0.855-2.315,1.518-3.433C3.501,5.901,5.468,3.92,7.965,2.397c2.497-1.522,5.334-2.283,8.511-2.283
			c0.908,0,1.82,0.028,2.738,0.084c0.917,0.057,1.801,0.303,2.653,0.738l4.595,30.782l6.327-31.492h8.37l-9.221,43.464H24.902z"/>
		<path fill="#333333" d="M56.449,33.279c-2.496,7.168-6.667,10.751-12.511,10.751c-1.532,0-2.904-0.548-4.114-1.644
			c-1.191-1.097-1.787-2.866-1.787-5.306c0-1.097,0.151-2.363,0.454-3.801l3.943-18.64h8.369l-4.171,19.747
			c-0.151,0.7-0.227,1.389-0.227,2.07c0,1.305,0.785,1.958,2.355,1.958c1.134,0,2.188-0.492,3.163-1.476
			c0.974-0.984,1.669-2.203,2.085-3.66H56.449z M52.847,6.923c0,1.286-0.458,2.369-1.376,3.248
			c-0.917,0.879-2.014,1.319-3.291,1.319c-1.277,0-2.359-0.444-3.248-1.334c-0.89-0.889-1.334-1.967-1.334-3.233
			c0-1.268,0.439-2.36,1.32-3.277c0.879-0.918,1.966-1.376,3.262-1.376c1.295,0,2.397,0.454,3.305,1.362
			C52.393,4.539,52.847,5.637,52.847,6.923z"/>
		<path fill="#333333" d="M67.968,40.854c-2.023,2.119-4.35,3.176-6.979,3.176c-3.519,0-5.883-1.654-7.093-4.963
			c-0.435-1.191-0.652-2.549-0.652-4.071s0.132-3.045,0.397-4.567c0.265-1.522,0.671-3.041,1.22-4.553
			c1.21-3.33,2.94-6.081,5.192-8.256c2.25-2.176,4.964-3.263,8.142-3.263c1.665,0,2.866,0.279,3.604,0.837
			c0.737,0.559,1.106,1.262,1.106,2.113v0.34l0.624-3.007h8.369l-5.758,26.953c1.759-0.587,3.209-1.48,4.354-2.682
			c1.144-1.2,2.132-3.078,2.964-5.631h2.44c-1.476,4.993-3.972,8.284-7.49,9.872c-0.965,0.436-1.892,0.767-2.781,0.994l-0.879,4.199
			c-0.738,3.725-2.213,6.411-4.426,8.058c-1.626,1.209-3.489,1.814-5.588,1.814s-3.783-0.463-5.05-1.39
			c-1.268-0.927-1.901-2.412-1.901-4.455c0-3.537,3.159-6.354,9.476-8.454L67.968,40.854z M66.663,46.84
			c-3.783,1.361-5.674,3.007-5.674,4.937c0,0.775,0.369,1.351,1.106,1.729c0.247,0.113,0.605,0.171,1.079,0.171
			c0.472,0,1.021-0.422,1.646-1.264c0.624-0.842,1.125-2.14,1.503-3.899L66.663,46.84z M72.366,20.114c0-0.869-0.407-1.503-1.22-1.9
			c-0.303-0.17-0.69-0.256-1.163-0.256c-1.23,0-2.354,0.577-3.376,1.73c-2.459,2.78-4,6.771-4.625,11.972
			c-0.095,0.795-0.142,1.636-0.142,2.526c0,1.72,0.359,2.921,1.077,3.602c0.417,0.417,0.927,0.625,1.532,0.625
			c1.079,0,2.081-0.412,3.008-1.234c0.926-0.823,1.579-1.925,1.957-3.305L72.366,20.114z"/>
		<path fill="#333333" d="M107.743,33.279c-4.351,7.168-9.674,10.751-15.972,10.751c-2.762,0-4.965-0.712-6.611-2.141
			c-1.646-1.428-2.468-3.787-2.468-7.078c0-4.426,1.125-8.709,3.376-12.851c1.721-3.159,4.066-5.41,7.036-6.752
			c1.532-0.719,3.121-1.078,4.766-1.078c2.685,0,4.511,0.505,5.476,1.518c0.965,1.011,1.446,2.359,1.446,4.042
			c0,3.31-1.333,6.124-4,8.44c-2.667,2.317-5.788,3.59-9.362,3.816c-0.095,1.097-0.142,1.872-0.142,2.326
			c0,1.986,0.35,3.296,1.051,3.929c0.698,0.635,1.683,0.951,2.95,0.951c2.23,0,4.108-0.497,5.631-1.489
			c1.521-0.993,3.134-2.455,4.837-4.383H107.743z M100.31,19.292c0-1.399-0.482-2.101-1.446-2.101
			c-1.419,0.039-2.791,1.292-4.114,3.759c-1.324,2.469-2.279,5.206-2.865,8.214c2.231-0.151,4.194-1.192,5.887-3.122
			C99.463,24.115,100.31,21.865,100.31,19.292z"/>
		<path fill="#333333" d="M117.786,37.931c-0.152,1.967-0.833,3.471-2.043,4.512c-1.229,1.06-2.695,1.587-4.397,1.587
			c-1.702,0-3.154-0.552-4.355-1.659c-1.201-1.106-1.802-2.917-1.802-5.433c0-1.078,0.152-2.336,0.454-3.773l6.213-29.108
			l8.596-1.163l-6.667,31.377c-0.17,0.719-0.254,1.344-0.254,1.873c0,0.53,0.174,1.021,0.525,1.475
			c0.349,0.455,0.908,0.681,1.673,0.681C116.496,38.301,117.18,38.177,117.786,37.931z"/>
		<path fill="#333333" d="M141.533,19.462c-2.366-1.721-3.549-4.095-3.549-7.121s1.231-5.84,3.689-8.441
			C144.134,1.3,147.149,0,150.725,0c2.401,0,4.388,0.629,5.957,1.887c1.57,1.259,2.354,2.904,2.354,4.937
			c0,2.034-0.426,3.623-1.276,4.766c-0.852,1.145-1.834,1.717-2.95,1.717s-2.053-0.52-2.81-1.561
			c0.682-0.264,1.278-0.906,1.789-1.929c0.51-1.021,0.765-2.094,0.765-3.22c0-1.125-0.339-1.933-1.02-2.425
			c-0.701-0.492-1.458-0.737-2.271-0.737c-1.627,0-3.007,0.836-4.143,2.51c-1.133,1.674-1.701,3.57-1.701,5.688
			c0,2.913,1.059,5.107,3.179,6.582c0.756,0.529,1.654,0.926,2.694,1.191c-2.95,0.644-5.418,2.412-7.404,5.306
			c-1.987,2.894-2.979,5.75-2.979,8.568c0,1.626,0.425,3.012,1.275,4.157c0.851,1.143,2.251,1.716,4.199,1.716
			s3.966-0.52,6.058-1.561c2.089-1.04,3.663-2.497,4.723-4.369l1.335,0.596c-1.534,3.367-3.866,6.03-6.994,7.987
			c-3.131,1.958-6.468,2.936-10.015,2.936c-3.549,0-6.218-0.978-8.016-2.936c-1.796-1.957-2.695-4.469-2.695-7.533
			c0-3.064,0.993-6.1,2.981-9.106C135.744,22.158,138.336,20.256,141.533,19.462z"/>
		<path fill="#333333" d="M175.01,33.279c-2.496,7.168-6.667,10.751-12.511,10.751c-1.533,0-2.904-0.548-4.113-1.644
			c-1.192-1.097-1.79-2.866-1.79-5.306c0-1.097,0.153-2.363,0.454-3.801l6.216-29.108l8.594-1.164l-6.665,31.378
			c-0.153,0.7-0.228,1.389-0.228,2.07c0,1.305,0.784,1.958,2.354,1.958c1.135,0,2.188-0.492,3.164-1.476
			c0.974-0.984,1.668-2.203,2.085-3.66H175.01z"/>
		<path fill="#333333" d="M190.528,33.279c-2.497,7.168-6.667,10.751-12.512,10.751c-1.533,0-2.905-0.548-4.114-1.644
			c-1.192-1.097-1.786-2.866-1.786-5.306c0-1.097,0.149-2.363,0.452-3.801l3.489-16.312h-1.928l0.482-2.328h1.9l1.76-8.028
			l8.594-1.164l-1.984,9.191h3.49l-0.453,2.328h-3.491l-3.715,17.419c-0.155,0.7-0.229,1.389-0.229,2.07
			c0,1.305,0.784,1.958,2.354,1.958c1.137,0,2.188-0.492,3.164-1.476c0.974-0.984,1.668-2.203,2.086-3.66H190.528z"/>
		<path fill="#333333" d="M220.742,21.619c-2.345,2.458-5.778,4.066-10.299,4.823c-0.454,5.296-1.978,9.532-4.567,12.71
			c-2.594,3.177-5.694,4.766-9.306,4.766c-4.464,0-7.34-1.645-8.625-4.937c-0.453-1.153-0.681-2.43-0.681-3.83
			c0-1.399,0.118-2.823,0.354-4.27c0.236-1.447,0.608-2.937,1.12-4.469c1.153-3.461,2.828-6.27,5.023-8.425
			c2.609-2.572,5.748-3.858,9.417-3.858c4.976,0,7.464,3.091,7.464,9.277v0.057c0.187,0.037,0.509,0.056,0.963,0.056
			c1.04,0,2.378-0.33,4.015-0.993c1.635-0.661,3.172-1.493,4.609-2.497L220.742,21.619z M205.619,26.611
			c-1.038-0.264-1.561-1.125-1.561-2.581c0-1.457,0.607-2.459,1.817-3.007c-0.076-1.229-0.271-2.1-0.582-2.61
			s-0.922-0.767-1.829-0.767c-1.779,0-3.48,1.963-5.107,5.887c-1.627,3.925-2.44,7.41-2.44,10.454c0,1.873,0.171,3.06,0.512,3.561
			c0.339,0.502,0.7,0.818,1.078,0.951c0.379,0.133,0.888,0.199,1.531,0.199c1.325,0,2.64-1.164,3.944-3.49
			C204.288,32.882,205.168,30.017,205.619,26.611z"/>
		<path fill="#333333" d="M225.28,17.646c1.892-2.156,4.151-3.234,6.78-3.234c1.854,0,3.395,0.512,4.626,1.532
			c1.229,1.022,1.842,2.535,1.842,4.539c0,2.006-0.32,4.275-0.963,6.81l-1.391,5.616c-0.302,1.23-0.452,2.233-0.452,3.008
			s0.164,1.385,0.495,1.829c0.33,0.445,0.95,0.668,1.859,0.668c0.907,0,1.539-0.123,1.9-0.369c-0.286,2.099-1.043,3.622-2.272,4.567
			c-1.228,0.946-2.506,1.417-3.828,1.417c-2.327,0-3.962-0.679-4.907-2.041c-0.833-1.135-1.249-2.568-1.249-4.298
			c0-1.731,0.436-4.336,1.306-7.817c0.869-3.479,1.304-5.881,1.304-7.206c0-1.986-0.7-2.979-2.098-2.979
			c-1.4,0-2.65,1.107-3.746,3.32c-0.321,0.624-0.587,1.305-0.794,2.042l-3.944,18.64h-8.37l6.159-29.052h8.368L225.28,17.646z"/>
	</g>
	<path clip-path="url(#SVGID_2_)" fill="none" d="M70.874,58.357H59.746C64.12,60.602,68.075,60.602,70.874,58.357z"/>
</g>
</svg>
