<?xml version="1.0" encoding="utf-8"?>
<!-- Generator: Adobe Illustrator 16.0.1, SVG Export Plug-In . SVG Version: 6.00 Build 0)  -->
<!DOCTYPE svg PUBLIC "-//W3C//DTD SVG 1.1//EN" "http://www.w3.org/Graphics/SVG/1.1/DTD/svg11.dtd">
<svg version="1.1" id="Layer_1" xmlns="http://www.w3.org/2000/svg" xmlns:xlink="http://www.w3.org/1999/xlink" x="0px" y="0px"
	 width="700.5px" height="262.688px" viewBox="0 0 700.5 262.688" enable-background="new 0 0 700.5 262.688" xml:space="preserve">
<g>
	<g>
		<defs>
			<rect id="SVGID_1_" width="700.5" height="262.688"/>
		</defs>
		<clipPath id="SVGID_2_">
			<use xlink:href="#SVGID_1_"  overflow="visible"/>
		</clipPath>
		<g clip-path="url(#SVGID_2_)">
			<path fill="#B3B3B3" d="M167.396,143.948H0.062v20.012h170.755C153.062,157.299,161.821,147.289,167.396,143.948z"/>
			<path fill="#B3B3B3" d="M700.5,143.948H218.391c-0.573,3.341-1.653,4.235-2.258,7.487c-0.822,4.461-5.361,9.189-12.261,12.524
				H700.5V143.948z"/>
		</g>
	</g>
	<g>
		<defs>
			<rect id="SVGID_3_" width="700.5" height="262.688"/>
		</defs>
		<clipPath id="SVGID_4_">
			<use xlink:href="#SVGID_3_"  overflow="visible"/>
		</clipPath>
		<g clip-path="url(#SVGID_4_)" enable-background="new    ">
			<path fill="#666666" d="M5.411,210.971c0-4.406,0.649-8.359,1.944-11.863c1.295-3.494,3.074-6.467,5.338-8.89
				c2.256-2.426,4.906-4.272,7.938-5.538c3.03-1.271,6.285-1.901,9.758-1.901c3.31,0,6.272,0.692,8.891,2.066
				c2.618,1.386,4.784,2.976,6.494,4.8l-5.377,5.957c-1.379-1.382-2.854-2.471-4.427-3.271c-1.57-0.799-3.403-1.203-5.5-1.203
				c-2.259,0-4.317,0.462-6.161,1.371c-1.849,0.909-3.447,2.206-4.796,3.885c-1.351,1.682-2.4,3.734-3.141,6.162
				c-0.747,2.429-1.121,5.156-1.121,8.189c0,6.177,1.337,11.011,4.011,14.517c2.673,3.497,6.301,5.245,10.878,5.245
				c2.425,0,4.532-0.462,6.325-1.399c1.792-0.941,3.462-2.261,5.002-3.971l5.375,5.877c-2.203,2.531-4.713,4.476-7.526,5.826
				c-2.812,1.352-5.926,2.023-9.34,2.023c-3.473,0-6.701-0.601-9.678-1.815c-2.98-1.211-5.573-3.001-7.776-5.379
				c-2.206-2.371-3.943-5.29-5.21-8.765C6.047,219.411,5.411,215.44,5.411,210.971z"/>
			<path fill="#666666" d="M88.607,237.853l-11.661-21.175h-8.269v21.175h-9.59v-54.088h18.276c2.811,0,5.43,0.282,7.854,0.829
				c2.428,0.553,4.525,1.448,6.288,2.69c1.763,1.24,3.158,2.874,4.177,4.914c1.021,2.044,1.532,4.581,1.532,7.61
				c0,4.137-0.98,7.474-2.938,10.008c-1.958,2.54-4.565,4.358-7.812,5.459l12.897,22.577H88.607L88.607,237.853z M68.678,209.069
				h7.694c3.69,0,6.517-0.772,8.476-2.314c1.957-1.536,2.934-3.856,2.934-6.946c0-3.141-0.978-5.318-2.934-6.532
				c-1.958-1.209-4.786-1.819-8.476-1.819h-7.694V209.069z"/>
		</g>
	</g>
	<g enable-background="new    ">
		<path fill="#666666" d="M112.016,183.765h32.585v8.109h-22.991v13.807h19.437v8.104h-19.437v15.962h23.818v8.104h-33.412V183.765z
			"/>
	</g>
	<g enable-background="new    ">
		<path fill="#666666" d="M189.923,223.216h-18.195l-4.217,14.64h-9.762l17.618-54.088h11.246l17.615,54.088h-10.09L189.923,223.216
			z M187.771,215.691l-1.902-6.625c-0.882-2.861-1.723-5.814-2.522-8.847c-0.8-3.027-1.585-6.031-2.358-9.013h-0.329
			c-0.774,3.032-1.544,6.051-2.317,9.058c-0.771,3.005-1.597,5.94-2.479,8.805l-1.902,6.622H187.771L187.771,215.691z"/>
	</g>
	<g enable-background="new    ">
		<path fill="#666666" d="M223.494,191.874h-15.63v-8.109h40.856v8.109h-15.63v45.979h-9.597V191.874z"/>
		<path fill="#666666" d="M264.27,183.765h9.594v54.088h-9.594V183.765z"/>
		<path fill="#666666" d="M286.929,183.765h10.174l7.606,27.206c0.879,3.093,1.666,6.015,2.355,8.771
			c0.691,2.757,1.504,5.71,2.439,8.845h0.332c0.938-3.135,1.752-6.088,2.438-8.845c0.687-2.756,1.448-5.678,2.274-8.771
			l7.528-27.206h9.842l-16.79,54.088h-11.33L286.929,183.765z"/>
		<path fill="#666666" d="M344.984,183.765h32.589v8.109h-22.991v13.807h19.429v8.104h-19.429v15.962h23.812v8.104h-33.41V183.765z"
			/>
	</g>
	<g enable-background="new    ">
		<path fill="#666666" d="M419.915,183.765h14.472c8.271,0,14.725,2.243,19.356,6.707c4.635,4.458,6.946,11.159,6.946,20.095
			c0,4.463-0.593,8.402-1.773,11.823c-1.186,3.417-2.901,6.273-5.124,8.56c-2.241,2.289-4.935,4.016-8.112,5.167
			c-3.176,1.163-6.767,1.739-10.789,1.739h-14.973v-54.091H419.915z M433.726,230.082c5.518,0,9.753-1.59,12.698-4.757
			c2.955-3.175,4.423-8.089,4.423-14.765c0-6.618-1.484-11.441-4.46-14.475c-2.979-3.026-7.194-4.552-12.656-4.552h-4.215v38.546
			h4.21V230.082z"/>
	</g>
	<g enable-background="new    ">
		<path fill="#666666" d="M473.26,183.765h32.585v8.109h-22.997v13.807h19.439v8.104h-19.439v15.962h23.823v8.104H473.26V183.765
			L473.26,183.765z"/>
		<path fill="#666666" d="M522.884,224.376c1.927,1.815,4.133,3.292,6.615,4.427c2.478,1.135,4.957,1.688,7.437,1.688
			c3.096,0,5.436-0.627,7.035-1.898c1.599-1.271,2.395-2.953,2.395-5.045c0-1.104-0.203-2.035-0.622-2.813
			c-0.413-0.772-0.985-1.442-1.735-2.026c-0.741-0.576-1.631-1.117-2.648-1.61c-1.021-0.499-2.135-0.995-3.346-1.488l-7.451-3.224
			c-1.313-0.556-2.625-1.243-3.922-2.069c-1.3-0.832-2.475-1.818-3.512-2.979c-1.046-1.16-1.893-2.506-2.525-4.051
			c-0.645-1.548-0.955-3.312-0.955-5.296c0-2.148,0.459-4.147,1.371-5.997c0.906-1.847,2.155-3.46,3.76-4.837
			c1.599-1.377,3.515-2.448,5.755-3.224c2.231-0.775,4.672-1.154,7.313-1.154c3.142,0,6.18,0.618,9.093,1.858
			c2.925,1.245,5.43,2.91,7.536,5.008l-4.885,6.117c-1.762-1.428-3.586-2.56-5.456-3.393c-1.878-0.826-3.974-1.242-6.288-1.242
			c-2.588,0-4.663,0.57-6.202,1.698c-1.539,1.135-2.314,2.691-2.314,4.672c0,1.052,0.234,1.947,0.701,2.694
			c0.471,0.743,1.101,1.402,1.896,1.983c0.807,0.578,1.728,1.105,2.779,1.567c1.043,0.471,2.118,0.924,3.221,1.368l7.362,3.062
			c1.6,0.664,3.059,1.437,4.384,2.317c1.32,0.881,2.466,1.901,3.432,3.056c0.967,1.16,1.722,2.5,2.272,4.013
			c0.55,1.52,0.826,3.272,0.826,5.257c0,2.2-0.438,4.27-1.322,6.202c-0.878,1.924-2.161,3.626-3.848,5.082
			c-1.68,1.459-3.718,2.622-6.111,3.472c-2.403,0.855-5.125,1.279-8.158,1.279c-3.634,0-7.148-0.681-10.543-2.066
			c-3.381-1.379-6.382-3.334-8.965-5.871L522.884,224.376z"/>
	</g>
	<g enable-background="new    ">
		<path fill="#666666" d="M572.742,183.765h9.594v54.088h-9.594V183.765z"/>
		<path fill="#666666" d="M596.479,210.971c0-4.406,0.664-8.359,1.987-11.863c1.331-3.494,3.141-6.467,5.455-8.89
			c2.317-2.426,5.048-4.272,8.189-5.538c3.144-1.269,6.532-1.901,10.176-1.901c1.866,0,3.608,0.19,5.204,0.578
			c1.607,0.385,3.067,0.898,4.393,1.528c1.319,0.633,2.528,1.368,3.64,2.191c1.104,0.827,2.053,1.682,2.885,2.562l-5.287,5.957
			c-1.383-1.328-2.885-2.394-4.513-3.229c-1.624-0.827-3.711-1.24-6.248-1.24c-2.428,0-4.623,0.456-6.572,1.368
			c-1.961,0.912-3.632,2.206-5.045,3.885c-1.403,1.679-2.497,3.737-3.267,6.16c-0.775,2.428-1.163,5.159-1.163,8.191
			c0,6.174,1.399,11.014,4.185,14.517c2.778,3.498,6.909,5.245,12.358,5.245c1.545,0,3.01-0.202,4.39-0.616
			c1.377-0.413,2.509-1,3.392-1.781v-11.663h-10.261v-7.851h18.853v23.823c-1.873,1.815-4.327,3.347-7.354,4.589
			c-3.038,1.24-6.428,1.855-10.17,1.855c-3.586,0-6.921-0.601-10.014-1.815c-3.092-1.211-5.766-3.004-8.023-5.378
			c-2.26-2.369-4.019-5.293-5.284-8.766C597.118,219.411,596.479,215.44,596.479,210.971z"/>
	</g>
	<g enable-background="new    ">
		<path fill="#666666" d="M654.615,183.765h9.84l16.873,30.438l5.541,11.492h0.325c-0.217-2.81-0.479-5.831-0.78-9.058
			c-0.303-3.224-0.462-6.351-0.462-9.387v-23.486h9.192v54.088h-9.846l-16.865-30.434l-5.541-11.495h-0.336
			c0.225,2.865,0.484,5.869,0.786,9.013c0.303,3.145,0.459,6.229,0.459,9.261v23.655h-9.187V183.765L654.615,183.765z"/>
	</g>
	<g>
		<defs>
			<rect id="SVGID_5_" width="700.5" height="262.688"/>
		</defs>
		<clipPath id="SVGID_6_">
			<use xlink:href="#SVGID_5_"  overflow="visible"/>
		</clipPath>
		<path clip-path="url(#SVGID_6_)" fill="#FFFFFF" d="M201.505,104.145c-8.558,8.954-18.395,13.438-29.508,13.438
			c-14.875,0-24.874-6.999-29.988-20.995c-1.842-5.037-2.761-10.773-2.761-17.215c0-6.435,0.557-12.874,1.676-19.312
			c1.12-6.437,2.839-12.855,5.156-19.255c5.116-14.074,12.438-25.711,21.955-34.908c9.516-9.197,20.992-13.797,34.428-13.797
			c7.036,0,12.115,1.18,15.229,3.541c3.119,2.358,4.682,5.338,4.682,8.937v1.439l2.638-12.717h35.39l-24.354,113.96
			c7.434-2.473,13.575-6.256,18.415-11.336c4.836-5.079,9.016-13.015,12.53-23.817h10.323c-6.24,21.116-16.795,35.027-31.668,41.746
			c-4.08,1.84-8.001,3.237-11.755,4.197l-3.716,17.753c-3.119,15.754-9.36,27.112-18.714,34.07
			c-6.881,5.113-14.755,7.676-23.631,7.676c-8.879,0-15.997-1.961-21.354-5.883c-5.361-3.917-8.037-10.193-8.037-18.824
			c0-14.955,13.352-26.873,40.062-35.755L201.505,104.145z M195.982,129.458c-15.995,5.757-23.99,12.714-23.99,20.869
			c0,3.275,1.56,5.715,4.677,7.316c1.035,0.482,2.557,0.725,4.559,0.725c2,0,4.317-1.782,6.959-5.333
			c2.638-3.569,4.758-9.062,6.354-16.504L195.982,129.458z M220.101,16.457c0-3.678-1.72-6.358-5.163-8.04
			c-1.275-0.72-2.916-1.079-4.916-1.079c-5.199,0-9.959,2.442-14.275,7.317c-10.395,11.756-16.911,28.633-19.555,50.62
			c-0.403,3.362-0.602,6.92-0.602,10.676c0,7.28,1.521,12.358,4.562,15.237c1.755,1.759,3.919,2.638,6.477,2.638
			c4.559,0,8.8-1.74,12.714-5.219c3.918-3.479,6.675-8.135,8.277-13.973L220.101,16.457z"/>
	</g>
	<g>
		<defs>
			<rect id="SVGID_7_" width="700.5" height="262.688"/>
		</defs>
		<clipPath id="SVGID_8_">
			<use xlink:href="#SVGID_7_"  overflow="visible"/>
		</clipPath>
		<g clip-path="url(#SVGID_8_)" enable-background="new    ">
			<path fill="#333333" d="M72.682,127.522l-14.41-88.685l-18.881,88.685H15.05L39.392,12.341
				c-7.505,3.146-13.304,7.825-17.384,14.036c-4.086,6.208-6.129,13.867-6.129,22.979c0,4.582,0.634,8.029,1.902,10.353
				c0.275,0.44,0.415,0.826,0.415,1.158c-9.057,0-14.713-2.901-16.976-8.694c-0.773-2.098-1.158-4.731-1.158-7.907
				c0-3.175,0.507-6.47,1.532-9.897c1.022-3.42,2.496-6.757,4.431-10.021c4.194-7.125,9.935-12.906,17.223-17.352
				c7.288-4.442,15.568-6.663,24.842-6.663c2.649,0,5.312,0.081,7.991,0.245c2.676,0.166,5.257,0.884,7.744,2.153l13.411,89.844
				L95.703,0.66h24.43L93.219,127.52H72.682V127.522z"/>
			<path fill="#333333" d="M164.761,97.133c-7.285,20.923-19.459,31.381-36.517,31.381c-4.471,0-8.476-1.601-12.007-4.801
				c-3.477-3.2-5.216-8.364-5.216-15.485c0-3.202,0.44-6.897,1.325-11.095l11.508-54.405h24.428l-12.176,57.635
				c-0.44,2.044-0.662,4.055-0.662,6.043c0,3.808,2.291,5.715,6.873,5.715c3.311,0,6.388-1.437,9.232-4.309
				c2.843-2.871,4.871-6.43,6.086-10.683h7.125V97.133z M154.248,20.206c0,3.754-1.337,6.915-4.017,9.48
				c-2.677,2.565-5.879,3.851-9.605,3.851c-3.729,0-6.887-1.297-9.48-3.894c-2.598-2.595-3.894-5.742-3.894-9.438
				c0-3.7,1.281-6.888,3.853-9.564c2.565-2.679,5.737-4.016,9.521-4.016c3.779,0,6.996,1.326,9.646,3.975
				C152.922,13.249,154.248,16.454,154.248,20.206z"/>
			<path fill="#333333" d="M198.381,119.242c-5.904,6.186-12.695,9.271-20.37,9.271c-10.27,0-17.17-4.829-20.702-14.487
				c-1.27-3.476-1.902-7.439-1.902-11.882c0-4.441,0.385-8.887,1.159-13.329c0.773-4.442,1.958-8.876,3.56-13.29
				c3.531-9.72,8.581-17.749,15.155-24.097c6.567-6.352,14.488-9.524,23.764-9.524c4.859,0,8.365,0.814,10.519,2.443
				c2.152,1.631,3.229,3.684,3.229,6.168v0.991l1.821-8.776h24.428l-16.806,78.667c5.133-1.713,9.366-4.319,12.708-7.826
				c3.339-3.504,6.223-8.984,8.65-16.436h7.122c-4.309,14.572-11.594,24.178-21.861,28.812c-2.817,1.273-5.522,2.239-8.117,2.902
				l-2.565,12.255c-2.153,10.874-6.459,18.712-12.918,23.518c-4.747,3.529-10.185,5.296-16.311,5.296s-11.041-1.351-14.739-4.056
				c-3.701-2.705-5.549-7.04-5.549-13.003c0-10.324,9.22-18.548,27.657-24.676L198.381,119.242z M194.573,136.714
				c-11.043,3.974-16.562,8.779-16.562,14.411c0,2.261,1.078,3.942,3.229,5.045c0.72,0.331,1.766,0.499,3.148,0.499
				c1.378,0,2.98-1.231,4.805-3.688c1.821-2.46,3.283-6.245,4.388-11.381L194.573,136.714z M211.219,58.709
				c0-2.537-1.188-4.389-3.562-5.547c-0.885-0.496-2.014-0.747-3.395-0.747c-3.59,0-6.871,1.685-9.854,5.05
				c-7.178,8.113-11.675,19.763-13.499,34.943c-0.277,2.32-0.415,4.774-0.415,7.372c0,5.021,1.049,8.525,3.144,10.514
				c1.218,1.217,2.705,1.824,4.473,1.824c3.148,0,6.072-1.203,8.779-3.602c2.702-2.402,4.608-5.619,5.712-9.646L211.219,58.709z"/>
			<path fill="#333333" d="M314.476,97.133c-12.7,20.923-28.237,31.381-46.619,31.381c-8.062,0-14.491-2.08-19.295-6.25
				c-4.805-4.168-7.204-11.054-7.204-20.659c0-12.919,3.283-25.419,9.854-37.509c5.023-9.221,11.867-15.791,20.536-19.708
				c4.473-2.098,9.11-3.146,13.911-3.146c7.837,0,13.166,1.474,15.983,4.431c2.816,2.951,4.22,6.885,4.22,11.797
				c0,9.661-3.891,17.875-11.675,24.635c-7.784,6.764-16.894,10.478-27.324,11.138c-0.278,3.202-0.415,5.464-0.415,6.789
				c0,5.796,1.021,9.62,3.066,11.469c2.038,1.853,4.913,2.774,8.611,2.774c6.509,0,11.99-1.449,16.435-4.346
				c4.439-2.898,9.148-7.165,14.118-12.792h5.798V97.133z M292.78,56.309c0-4.083-1.407-6.133-4.222-6.133
				c-4.142,0.114-8.145,3.771-12.007,10.973c-3.865,7.206-6.651,15.195-8.363,23.975c6.514-0.44,12.242-3.479,17.184-9.113
				C290.308,70.387,292.78,63.819,292.78,56.309z"/>
			<path fill="#333333" d="M343.788,110.712c-0.444,5.74-2.431,10.13-5.963,13.168c-3.587,3.095-7.867,4.634-12.833,4.634
				c-4.969,0-9.207-1.612-12.712-4.843c-3.506-3.229-5.26-8.515-5.26-15.858c0-3.146,0.443-6.817,1.325-11.012l18.134-84.959
				l25.09-3.395l-19.459,91.581c-0.496,2.1-0.742,3.924-0.742,5.467c0,1.547,0.509,2.98,1.533,4.306
				c1.018,1.328,2.649,1.986,4.883,1.986C340.023,111.79,342.02,111.429,343.788,110.712z"/>
			<path fill="#333333" d="M413.1,56.805c-6.906-5.022-10.357-11.952-10.357-20.785c0-8.832,3.591-17.045,10.766-24.637
				C420.69,3.794,429.489,0,439.928,0c7.009,0,12.81,1.835,17.387,5.508c4.583,3.674,6.872,8.476,6.872,14.41
				c0,5.936-1.245,10.575-3.726,13.91c-2.485,3.342-5.353,5.012-8.607,5.012c-3.261,0-5.994-1.518-8.203-4.556
				c1.989-0.771,3.728-2.646,5.222-5.631c1.487-2.98,2.234-6.111,2.234-9.398c0-3.284-0.992-5.642-2.979-7.079
				c-2.047-1.435-4.256-2.15-6.627-2.15c-4.749,0-8.779,2.439-12.094,7.325c-3.31,4.887-4.966,10.421-4.966,16.602
				c0,8.503,3.093,14.907,9.278,19.212c2.206,1.544,4.828,2.703,7.864,3.477c-8.611,1.879-15.814,7.039-21.609,15.486
				c-5.803,8.447-8.696,16.783-8.696,25.009c0,4.746,1.24,8.791,3.72,12.133c2.486,3.336,6.573,5.008,12.257,5.008
				c5.687,0,11.578-1.518,17.684-4.557c6.094-3.035,10.688-7.288,13.784-12.751l3.896,1.739
				c-4.478,9.828-11.284,17.601-20.414,23.312c-9.139,5.715-18.878,8.57-29.23,8.57c-10.358,0-18.151-2.855-23.396-8.57
				c-5.245-5.712-7.867-13.044-7.867-21.987s2.896-17.805,8.699-26.578C396.203,64.674,403.768,59.122,413.1,56.805z"/>
			<path fill="#333333" d="M510.81,97.133c-7.285,20.923-19.459,31.381-36.516,31.381c-4.475,0-8.474-1.601-12.006-4.801
				c-3.479-3.2-5.225-8.364-5.225-15.485c0-3.202,0.448-6.897,1.325-11.095l18.143-84.959l25.083-3.397l-19.45,91.584
				c-0.447,2.044-0.667,4.055-0.667,6.043c0,3.808,2.289,5.715,6.869,5.715c3.314,0,6.388-1.437,9.235-4.309
				c2.845-2.871,4.868-6.43,6.088-10.683h7.12V97.133z"/>
			<path fill="#333333" d="M556.102,97.133c-7.285,20.923-19.456,31.381-36.519,31.381c-4.475,0-8.477-1.601-12.006-4.801
				c-3.479-3.2-5.213-8.364-5.213-15.485c0-3.202,0.437-6.897,1.319-11.095l10.182-47.611h-5.627l1.408-6.793h5.547l5.137-23.433
				l25.083-3.396l-5.792,26.826h10.188l-1.323,6.793h-10.189l-10.843,50.842c-0.453,2.044-0.67,4.055-0.67,6.043
				c0,3.808,2.291,5.715,6.872,5.715c3.32,0,6.388-1.437,9.235-4.309c2.842-2.871,4.868-6.43,6.088-10.683h7.123V97.133z"/>
			<path fill="#333333" d="M644.291,63.101c-6.847,7.175-16.865,11.868-30.06,14.077c-1.325,15.457-5.774,27.822-13.331,37.097
				c-7.57,9.273-16.62,13.911-27.161,13.911c-13.031,0-21.423-4.802-25.174-14.41c-1.322-3.364-1.989-7.093-1.989-11.179
				c0-4.083,0.345-8.239,1.034-12.463c0.688-4.223,1.776-8.572,3.27-13.043c3.363-10.103,8.255-18.301,14.662-24.592
				c7.613-7.506,16.774-11.26,27.483-11.26c14.525,0,21.787,9.021,21.787,27.079v0.165c0.545,0.108,1.482,0.164,2.811,0.164
				c3.033,0,6.938-0.964,11.718-2.899c4.771-1.928,9.259-4.356,13.451-7.288L644.291,63.101z M600.15,77.67
				c-3.029-0.77-4.555-3.283-4.555-7.531c0-4.253,1.771-7.179,5.302-8.778c-0.222-3.587-0.792-6.129-1.698-7.617
				c-0.907-1.489-2.691-2.239-5.339-2.239c-5.19,0-10.156,5.729-14.904,17.184c-4.749,11.455-7.123,21.627-7.123,30.512
				c0,5.467,0.499,8.932,1.496,10.394c0.986,1.465,2.041,2.389,3.144,2.776c1.109,0.388,2.592,0.581,4.47,0.581
				c3.868,0,7.704-3.397,11.513-10.187C596.266,95.974,598.834,87.612,600.15,77.67z"/>
			<path fill="#333333" d="M657.534,51.504c5.523-6.292,12.119-9.438,19.793-9.438c5.409,0,9.907,1.494,13.499,4.471
				c3.588,2.982,5.375,7.399,5.375,13.248c0,5.856-0.932,12.478-2.81,19.877l-4.06,16.393c-0.881,3.59-1.316,6.518-1.316,8.779
				s0.479,4.042,1.442,5.339c0.963,1.298,2.773,1.949,5.427,1.949c2.646,0,4.492-0.359,5.547-1.077
				c-0.838,6.127-3.044,10.571-6.633,13.329c-3.583,2.762-7.316,4.136-11.174,4.136c-6.792,0-11.563-1.98-14.322-5.957
				c-2.432-3.312-3.643-7.495-3.643-12.544c0-5.053,1.271-12.656,3.808-22.815c2.537-10.154,3.808-17.165,3.808-21.033
				c0-5.796-2.043-8.694-6.122-8.694c-4.087,0-7.735,3.23-10.934,9.689c-0.938,1.821-1.716,3.81-2.32,5.96l-11.51,54.405h-24.431
				l17.978-84.794h24.422L657.534,51.504z"/>
		</g>
	</g>
	<g>
		<defs>
			<rect id="SVGID_9_" width="700.5" height="262.688"/>
		</defs>
		<clipPath id="SVGID_10_">
			<use xlink:href="#SVGID_9_"  overflow="visible"/>
		</clipPath>
		<path clip-path="url(#SVGID_10_)" fill="none" d="M206.863,170.331h-32.479C187.15,176.881,198.694,176.881,206.863,170.331z"/>
	</g>
</g>
</svg>
