<?xml version="1.0" encoding="utf-8"?>
<!-- Generator: Adobe Illustrator 18.1.0, SVG Export Plug-In . SVG Version: 6.00 Build 0)  -->
<svg version="1.1" id="Layer_1" xmlns="http://www.w3.org/2000/svg" xmlns:xlink="http://www.w3.org/1999/xlink" x="0px" y="0px"
	 viewBox="0 0 75 50" enable-background="new 0 0 75 50" xml:space="preserve">
<path fill="#FFFFFF" d="M38.7,40.7c-3.4,2.2-6.5-0.9-7.6-3.3C29.8,34.8,26,20.2,25,19c-1-1.2-4.1,1.2-4.1,1.2l-1.4-2
	c0,0,6.2-7.4,10.8-8.3c5-1,5,7.7,6.1,12.6c1.2,4.6,1.9,7.4,3,7.4s3-2.6,5-6.6s-0.1-7.5-4.2-5c1.7-10,17.2-12.5,15.2-0.9
	C53.3,28.7,42.1,38.5,38.7,40.7z"/>
</svg>
