<?xml version="1.0" encoding="utf-8"?>
<!-- Generator: Adobe Illustrator 18.1.0, SVG Export Plug-In . SVG Version: 6.00 Build 0)  -->
<svg version="1.1" id="Layer_1" xmlns="http://www.w3.org/2000/svg" xmlns:xlink="http://www.w3.org/1999/xlink" x="0px" y="0px"
	 viewBox="0 0 75 50" enable-background="new 0 0 75 50" xml:space="preserve">
<path fill="#929497" d="M39.3,48.2c-5,3.3-9.7-1.3-11.3-4.9c-1.9-3.9-7.6-25.8-9.1-27.6c-1.6-1.8-6.1,1.8-6.1,1.8l-2.1-3
	c0,0,9.2-11.1,16.1-12.4c7.4-1.6,7.4,11.4,9.1,18.7c1.8,6.9,2.9,11,4.4,11s4.4-3.9,7.5-9.9c3.1-6-0.1-11.2-6.3-7.5
	c2.5-14.9,25.6-18.6,22.7-1.3C61.1,30.3,44.3,44.9,39.3,48.2z"/>
</svg>
