<?xml version="1.0" encoding="utf-8"?>
<!-- Generator: Adobe Illustrator 18.1.0, SVG Export Plug-In . SVG Version: 6.00 Build 0)  -->
<svg version="1.1" id="Layer_1" xmlns="http://www.w3.org/2000/svg" xmlns:xlink="http://www.w3.org/1999/xlink" x="0px" y="0px"
	 viewBox="0 0 75 50" enable-background="new 0 0 75 50" xml:space="preserve">
<path fill="#FFFFFF" d="M39.3,48.8c-5.2,3.4-9.9-1.3-11.7-5c-2-4-7.8-26.5-9.3-28.3c-1.6-1.8-6.3,1.8-6.3,1.8l-2.2-3.1
	c0,0,9.4-11.4,16.6-12.8c7.6-1.6,7.6,11.8,9.3,19.3c1.8,7.1,2.9,11.3,4.5,11.3s4.5-4,7.7-10.2c3.2-6.1-0.1-11.5-6.5-7.7
	C44.1-1.2,67.9-5,64.8,12.8C61.8,30.4,44.5,45.4,39.3,48.8z"/>
</svg>
